<svg width="136" height="87" viewBox="0 0 136 87" fill="none" xmlns="http://www.w3.org/2000/svg">
<path d="M48.5422 68.4302C48.5422 68.095 48.4437 67.8502 48.2482 67.6942C48.0518 67.5375 47.799 67.4616 47.4903 67.4664L46.5443 67.4664L46.5443 69.4579L47.5889 69.4579C47.6446 69.4579 47.7262 69.4466 47.8345 69.4256C47.942 69.4046 48.0478 69.3585 48.1528 69.2858C48.2578 69.2139 48.3491 69.1105 48.4259 68.9756C48.5035 68.8407 48.5422 68.6589 48.5422 68.4302ZM48.9551 68.4197C48.9551 68.5886 48.93 68.7542 48.8783 68.9182C48.8266 69.0814 48.7466 69.2285 48.6368 69.3585C48.5269 69.4902 48.3863 69.5961 48.2158 69.6777C48.0454 69.7601 47.8386 69.8005 47.5954 69.8005L46.5443 69.8005L46.5443 71.6441C46.5443 71.6853 46.5378 71.7136 46.5233 71.7281C46.5095 71.7419 46.4837 71.7491 46.4465 71.7491L46.2494 71.7491C46.2122 71.7491 46.1872 71.7419 46.1726 71.7281C46.1589 71.7136 46.1516 71.6853 46.1516 71.6441L46.1516 67.1933C46.1516 67.1602 46.1589 67.1368 46.1726 67.1231C46.1872 67.1101 46.2155 67.1029 46.2567 67.1029L47.5744 67.1029C47.7707 67.1029 47.9533 67.1311 48.1213 67.1869C48.2894 67.2434 48.4356 67.3258 48.5592 67.4357C48.6836 67.5456 48.7806 67.6821 48.85 67.8453C48.9211 68.0093 48.9551 68.2008 48.9551 68.4197Z" fill="white"/>
<path d="M51.096 68.6088C50.89 68.6088 50.7244 68.6411 50.5983 68.7042C50.4723 68.7672 50.3737 68.8609 50.3042 68.9853C50.234 69.1097 50.1863 69.2592 50.1604 69.4353C50.1346 69.6106 50.1225 69.811 50.1225 70.0356C50.1225 70.2602 50.1346 70.4605 50.1604 70.6367C50.1863 70.812 50.234 70.9623 50.3042 71.0859C50.3737 71.2103 50.4723 71.304 50.5983 71.367C50.7244 71.43 50.89 71.4623 51.096 71.4623C51.306 71.4623 51.4781 71.4308 51.6114 71.3702C51.7439 71.3097 51.8482 71.2184 51.9233 71.0972C51.9984 70.9744 52.0485 70.8257 52.0768 70.6504C52.1051 70.4743 52.1196 70.2699 52.1196 70.0356C52.1196 69.8061 52.1067 69.6034 52.0808 69.428C52.055 69.2519 52.0041 69.1033 51.9306 68.9813C51.8554 68.8601 51.7512 68.7672 51.6187 68.7042C51.4854 68.6411 51.3109 68.6088 51.096 68.6088ZM51.096 71.8049C50.7736 71.8049 50.5216 71.7516 50.339 71.6441C50.1564 71.5367 50.0199 71.3953 49.9294 71.22C49.8381 71.0447 49.7815 70.85 49.7605 70.6351C49.7395 70.4201 49.729 70.2028 49.729 69.9831C49.729 69.8053 49.7419 69.6163 49.7678 69.4151C49.7936 69.2148 49.8542 69.0289 49.9504 68.8585C50.0457 68.6872 50.1839 68.5466 50.3632 68.4343C50.5434 68.322 50.7874 68.2663 51.096 68.2663C51.4095 68.2663 51.6591 68.3139 51.8465 68.4093C52.0324 68.5054 52.1754 68.6339 52.2731 68.7946C52.3709 68.9562 52.4355 69.1396 52.4662 69.3448C52.4969 69.5508 52.5114 69.7633 52.5114 69.9831C52.5114 70.198 52.5001 70.4137 52.4767 70.631C52.4541 70.8483 52.3943 71.0438 52.3014 71.2167C52.2085 71.3896 52.0663 71.531 51.8772 71.6409C51.6882 71.75 51.428 71.8049 51.096 71.8049Z" fill="white"/>
<path d="M54.8051 68.2654C54.8657 68.2654 54.9408 68.2687 55.0297 68.2727C55.1186 68.2775 55.2091 68.2856 55.3036 68.2977C55.3965 68.3091 55.4878 68.3244 55.5767 68.3422C55.6655 68.3616 55.7447 68.385 55.815 68.4133C55.8522 68.427 55.8723 68.4456 55.874 68.4698C55.8772 68.4933 55.878 68.5135 55.878 68.532L55.8497 68.6516C55.8449 68.675 55.8311 68.6888 55.8077 68.6928C55.7843 68.6985 55.756 68.6985 55.7237 68.6928C55.6631 68.6888 55.5944 68.6823 55.5169 68.6718C55.4401 68.6629 55.3593 68.6548 55.2753 68.6476C55.1913 68.6411 55.1081 68.6346 55.0265 68.6306C54.9449 68.6258 54.8689 68.6233 54.7986 68.6233C54.6161 68.6233 54.4658 68.646 54.347 68.6896C54.2275 68.734 54.1337 68.8108 54.0659 68.9182C53.998 69.0265 53.952 69.1687 53.9253 69.3464C53.9002 69.525 53.8873 69.7471 53.8873 70.0145C53.8873 70.2908 53.9019 70.5211 53.9293 70.7061C53.9576 70.8911 54.0053 71.039 54.0731 71.1497C54.141 71.2587 54.2331 71.3379 54.3495 71.3848C54.4666 71.4316 54.6161 71.4542 54.7986 71.4542C54.8447 71.4542 54.9085 71.4526 54.9885 71.4478C55.0669 71.4429 55.1525 71.4373 55.2438 71.4308C55.3351 71.4235 55.4256 71.4155 55.5169 71.4098C55.6082 71.4025 55.6906 71.3936 55.7657 71.3848C55.8214 71.3848 55.8522 71.4058 55.857 71.4478L55.878 71.5375C55.8829 71.5609 55.8804 71.5819 55.8707 71.6029C55.861 71.6231 55.8384 71.6425 55.8004 71.6611C55.6881 71.7071 55.5387 71.741 55.3521 71.7637C55.1654 71.7871 54.9828 71.7984 54.8051 71.7984C54.5151 71.7984 54.2832 71.754 54.1079 71.6651C53.9326 71.5762 53.7984 71.4526 53.7055 71.2935C53.6118 71.1351 53.5504 70.9469 53.5197 70.7295C53.489 70.5122 53.4737 70.2755 53.4737 70.0178C53.4737 69.7891 53.489 69.5678 53.5197 69.3561C53.5504 69.1436 53.6118 68.9562 53.7055 68.7946C53.7984 68.6338 53.9326 68.5054 54.1079 68.4092C54.2832 68.3139 54.5151 68.2654 54.8051 68.2654Z" fill="white"/>
<path d="M57.9584 68.2654C58.019 68.2654 58.0941 68.2687 58.183 68.2727C58.2718 68.2775 58.3623 68.2856 58.456 68.2977C58.5498 68.3091 58.6402 68.3244 58.7299 68.3422C58.818 68.3616 58.8972 68.385 58.9683 68.4133C59.0054 68.427 59.0248 68.4456 59.0272 68.4698C59.0297 68.4933 59.0305 68.5135 59.0305 68.532L59.0022 68.6516C58.9981 68.675 58.9844 68.6888 58.961 68.6928C58.9376 68.6985 58.9093 68.6985 58.877 68.6928C58.8164 68.6888 58.7469 68.6823 58.6701 68.6718C58.5934 68.6629 58.5126 68.6548 58.4278 68.6476C58.3437 68.6411 58.2605 68.6346 58.1789 68.6306C58.0981 68.6258 58.0214 68.6233 57.9511 68.6233C57.7693 68.6233 57.619 68.646 57.4995 68.6896C57.3807 68.734 57.287 68.8108 57.2191 68.9182C57.1513 69.0265 57.1044 69.1687 57.0786 69.3464C57.0535 69.525 57.0406 69.7471 57.0406 70.0145C57.0406 70.2908 57.0543 70.5211 57.0818 70.7061C57.1101 70.8911 57.1585 71.039 57.2264 71.1497C57.2935 71.2587 57.3856 71.3379 57.5027 71.3848C57.6199 71.4316 57.7693 71.4542 57.9511 71.4542C57.998 71.4542 58.061 71.4526 58.141 71.4478C58.2201 71.4429 58.305 71.4373 58.3963 71.4308C58.4884 71.4235 58.578 71.4155 58.6701 71.4098C58.7606 71.4025 58.8438 71.3936 58.9182 71.3848C58.9747 71.3848 59.0054 71.4058 59.0103 71.4478L59.0305 71.5375C59.0353 71.5609 59.0337 71.5819 59.024 71.6029C59.0143 71.6231 58.9909 71.6425 58.9537 71.6611C58.8414 71.7071 58.692 71.741 58.5053 71.7637C58.3179 71.7871 58.1361 71.7984 57.9584 71.7984C57.6683 71.7984 57.4365 71.754 57.2611 71.6651C57.0858 71.5762 56.9517 71.4526 56.8588 71.2935C56.7643 71.1351 56.7029 70.9469 56.673 70.7295C56.6415 70.5122 56.6269 70.2755 56.6269 70.0178C56.6269 69.7891 56.6415 69.5678 56.673 69.3561C56.7029 69.1436 56.7643 68.9562 56.8588 68.7946C56.9517 68.6338 57.0858 68.5054 57.2611 68.4092C57.4365 68.3139 57.6683 68.2654 57.9584 68.2654Z" fill="white"/>
<path d="M59.9377 68.4343C59.9377 68.3688 59.97 68.3365 60.0355 68.3365L60.2253 68.3365C60.2859 68.3365 60.3166 68.3688 60.3166 68.4343L60.3166 71.0971L61.1997 69.8707L62.2718 68.4197C62.2952 68.3971 62.3154 68.3769 62.3324 68.3608C62.3485 68.3446 62.376 68.3365 62.4139 68.3365L62.5788 68.3365C62.645 68.3365 62.6781 68.3664 62.6781 68.427L62.6781 71.6514C62.6781 71.716 62.6426 71.7491 62.5715 71.7491L62.3921 71.7491C62.321 71.7491 62.2855 71.716 62.2855 71.6514L62.2855 68.9101L61.5293 69.983L60.2883 71.6796C60.2746 71.6974 60.2593 71.7136 60.2431 71.7281C60.2269 71.7419 60.1995 71.7491 60.1623 71.7491L60.029 71.7491C59.9684 71.7491 59.9377 71.716 59.9377 71.6514L59.9377 68.4343Z" fill="white"/>
<path d="M65.1197 67.8809C64.9363 67.8809 64.761 67.8348 64.5897 67.7435C64.4192 67.6522 64.2851 67.5068 64.1873 67.3057C64.1777 67.2871 64.1671 67.2612 64.1558 67.2289C64.1445 67.1958 64.1502 67.1683 64.1728 67.1441L64.2786 67.0601C64.3158 67.0318 64.3506 67.0399 64.3837 67.0819C64.4443 67.1651 64.5024 67.2362 64.559 67.2919C64.6139 67.3477 64.6721 67.3945 64.7303 67.4317C64.7884 67.4697 64.8506 67.4963 64.9161 67.5125C64.9807 67.5286 65.0534 67.5375 65.1334 67.5375C65.274 67.5375 65.3952 67.5004 65.4978 67.4285C65.6004 67.3557 65.7175 67.2386 65.8484 67.0746C65.8807 67.0423 65.9155 67.035 65.9534 67.0536L66.0585 67.1303C66.0819 67.1489 66.0867 67.1748 66.0722 67.2079C66.0585 67.2402 66.0463 67.2685 66.0375 67.2919C65.93 67.4979 65.7943 67.6474 65.6311 67.7403C65.4671 67.8332 65.2974 67.8809 65.1197 67.8809ZM63.7947 68.4343C63.7947 68.3689 63.827 68.3357 63.8925 68.3357L64.0823 68.3357C64.1429 68.3357 64.1728 68.3689 64.1728 68.4343L64.1728 71.0972L65.0567 69.8708L66.1287 68.4198C66.1522 68.3963 66.1724 68.3769 66.1893 68.3608C66.2055 68.3446 66.233 68.3357 66.2709 68.3357L66.4358 68.3357C66.502 68.3357 66.5351 68.3664 66.5351 68.427L66.5351 71.6514C66.5351 71.7168 66.4996 71.7491 66.4285 71.7491L66.2491 71.7491C66.178 71.7491 66.1425 71.7168 66.1425 71.6514L66.1425 68.911L65.3863 69.9831L64.1453 71.6789C64.1308 71.6974 64.1163 71.7136 64.1001 71.7281C64.0839 71.7419 64.0565 71.7491 64.0193 71.7491L63.886 71.7491C63.8246 71.7491 63.7947 71.7168 63.7947 71.6514L63.7947 68.4343Z" fill="white"/>
<path d="M68.9039 68.2654C68.9645 68.2654 69.0396 68.2687 69.1285 68.2727C69.2174 68.2775 69.3078 68.2856 69.4024 68.2977C69.4953 68.3091 69.5866 68.3244 69.6754 68.3422C69.7643 68.3616 69.8435 68.385 69.9138 68.4133C69.9509 68.427 69.9711 68.4456 69.9728 68.4698C69.976 68.4933 69.9768 68.5135 69.9768 68.532L69.9485 68.6516C69.9437 68.675 69.9299 68.6888 69.9065 68.6928C69.8831 68.6985 69.8548 68.6985 69.8225 68.6928C69.7619 68.6888 69.6932 68.6823 69.6157 68.6718C69.5389 68.6629 69.4581 68.6548 69.3741 68.6476C69.2901 68.6411 69.2069 68.6346 69.1253 68.6306C69.0437 68.6258 68.9677 68.6233 68.8974 68.6233C68.7148 68.6233 68.5646 68.646 68.4458 68.6896C68.3262 68.734 68.2325 68.8108 68.1647 68.9182C68.0976 69.0265 68.0507 69.1687 68.0249 69.3464C67.999 69.525 67.9869 69.7471 67.9869 70.0145C67.9869 70.2908 68.0007 70.5211 68.0289 70.7061C68.0564 70.8911 68.1041 71.039 68.1719 71.1497C68.2398 71.2587 68.3319 71.3379 68.4482 71.3848C68.5654 71.4316 68.7148 71.4542 68.8974 71.4542C68.9435 71.4542 69.0073 71.4526 69.0873 71.4478C69.1657 71.4429 69.2513 71.4373 69.3426 71.4308C69.4339 71.4235 69.5244 71.4155 69.6157 71.4098C69.707 71.4025 69.7894 71.3936 69.8645 71.3848C69.9202 71.3848 69.9509 71.4058 69.9558 71.4478L69.9768 71.5375C69.9816 71.5609 69.9792 71.5819 69.9695 71.6029C69.9598 71.6231 69.9372 71.6425 69.8992 71.6611C69.7869 71.7071 69.6375 71.741 69.4508 71.7637C69.2642 71.7871 69.0816 71.7984 68.9039 71.7984C68.6139 71.7984 68.382 71.754 68.2075 71.6651C68.0322 71.5762 67.898 71.4526 67.8043 71.2935C67.7106 71.1351 67.6484 70.9469 67.6193 70.7295C67.5878 70.5122 67.5733 70.2755 67.5733 70.0178C67.5733 69.7891 67.5878 69.5678 67.6193 69.3561C67.6484 69.1436 67.7106 68.9562 67.8043 68.7946C67.898 68.6338 68.0322 68.5054 68.2075 68.4092C68.382 68.3139 68.6139 68.2654 68.9039 68.2654Z" fill="white"/>
<path d="M71.2759 71.6724C71.2759 71.7241 71.25 71.7491 71.1983 71.7491L70.9551 71.7491C70.9075 71.7491 70.8832 71.7241 70.8832 71.6724L70.8832 68.4133C70.8832 68.3616 70.9075 68.3357 70.9551 68.3357L71.1983 68.3357C71.25 68.3357 71.2759 68.3616 71.2759 68.4133L71.2759 69.836L71.8786 69.836C71.94 69.836 72.0054 69.8304 72.0749 69.8182C72.1452 69.8069 72.2139 69.7803 72.2817 69.7374C72.3496 69.6962 72.4134 69.6365 72.4748 69.5589C72.5354 69.4821 72.5863 69.3803 72.6291 69.2535L72.9087 68.427C72.9281 68.3664 72.9676 68.3357 73.0282 68.3357L73.2027 68.3357C73.2544 68.3357 73.2843 68.3454 73.2908 68.364C73.2981 68.3826 73.2948 68.4109 73.2803 68.448L73.0072 69.268C72.941 69.4595 72.8691 69.6146 72.7899 69.7342C72.7107 69.8538 72.6057 69.9313 72.4748 69.9693C72.558 69.9927 72.6307 70.0242 72.6913 70.0638C72.7519 70.1034 72.8069 70.1527 72.8529 70.2109C72.8998 70.269 72.9394 70.3393 72.9725 70.4209C73.0048 70.5033 73.0404 70.5946 73.0775 70.698L73.3926 71.6368C73.4023 71.6748 73.4031 71.7031 73.3966 71.7208C73.3894 71.7402 73.3627 71.7491 73.315 71.7491L73.1123 71.7491C73.0848 71.7491 73.0606 71.7451 73.042 71.7354C73.0242 71.7257 73.0088 71.7031 73 71.6651L72.7059 70.7683C72.6639 70.6415 72.6162 70.5397 72.5621 70.4629C72.5079 70.3862 72.4474 70.3264 72.3795 70.2844C72.3116 70.2424 72.2397 70.2141 72.1622 70.2004C72.0854 70.1858 72.0022 70.1794 71.9141 70.1794L71.2759 70.1794L71.2759 71.6724Z" fill="white"/>
<path d="M74.3096 68.4343C74.3096 68.3688 74.3419 68.3365 74.4074 68.3365L74.5972 68.3365C74.6578 68.3365 74.6885 68.3688 74.6885 68.4343L74.6885 71.0971L75.5716 69.8707L76.6437 68.4197C76.6679 68.3971 76.6881 68.3769 76.7042 68.3608C76.7204 68.3446 76.7487 68.3365 76.7859 68.3365L76.9507 68.3365C77.0169 68.3365 77.05 68.3664 77.05 68.427L77.05 71.6514C77.05 71.716 77.0153 71.7491 76.9434 71.7491L76.7648 71.7491C76.6929 71.7491 76.6574 71.716 76.6574 71.6514L76.6574 68.9101L75.9012 69.983L74.6602 71.6796C74.6465 71.6974 74.6312 71.7136 74.615 71.7281C74.5988 71.7419 74.5714 71.7491 74.5342 71.7491L74.4009 71.7491C74.3403 71.7491 74.3096 71.716 74.3096 71.6514L74.3096 68.4343Z" fill="white"/>
<path d="M79.4915 67.8809C79.3089 67.8809 79.1328 67.8348 78.9615 67.7435C78.7918 67.6522 78.6569 67.5068 78.5592 67.3057C78.5495 67.2871 78.539 67.2612 78.5277 67.2289C78.5164 67.1958 78.522 67.1683 78.5446 67.1441L78.6505 67.0601C78.6876 67.0318 78.7224 67.0399 78.7555 67.0819C78.8161 67.1651 78.8743 67.2362 78.9308 67.2919C78.9866 67.3477 79.0439 67.3945 79.1021 67.4317C79.1611 67.4697 79.2225 67.4963 79.2879 67.5125C79.3533 67.5286 79.4261 67.5375 79.5052 67.5375C79.6458 67.5375 79.767 67.5004 79.8696 67.4285C79.973 67.3557 80.0902 67.2386 80.2202 67.0746C80.2525 67.0423 80.2881 67.035 80.3253 67.0536L80.4303 67.1303C80.4537 67.1489 80.4586 67.1748 80.4448 67.2079C80.4303 67.2402 80.4182 67.2685 80.4093 67.2919C80.3018 67.4979 80.1669 67.6474 80.0029 67.7403C79.8397 67.8332 79.6692 67.8809 79.4915 67.8809ZM78.1665 68.4343C78.1665 68.3689 78.1988 68.3357 78.2643 68.3357L78.4541 68.3357C78.5147 68.3357 78.5446 68.3689 78.5446 68.4343L78.5446 71.0972L79.4285 69.8708L80.5006 68.4198C80.5248 68.3963 80.545 68.3769 80.5612 68.3608C80.5773 68.3446 80.6056 68.3357 80.6428 68.3357L80.8076 68.3357C80.8738 68.3357 80.907 68.3664 80.907 68.427L80.907 71.6514C80.907 71.7168 80.8722 71.7491 80.8003 71.7491L80.6218 71.7491C80.5499 71.7491 80.5143 71.7168 80.5143 71.6514L80.5143 68.911L79.7581 69.9831L78.5172 71.6789C78.5034 71.6974 78.4881 71.7136 78.4719 71.7281C78.4558 71.7419 78.4283 71.7491 78.3911 71.7491L78.2578 71.7491C78.1972 71.7491 78.1665 71.7168 78.1665 71.6514L78.1665 68.4343Z" fill="white"/>
<path d="M48.3459 75.6885L47.2876 75.6885L47.2876 78.6664C47.2876 78.7278 47.252 78.7577 47.1809 78.7577L47.0088 78.7577C46.9329 78.7577 46.8949 78.7278 46.8949 78.6664L46.8949 75.6885L45.8438 75.6885C45.7687 75.6885 45.7315 75.6562 45.7315 75.5899L45.7315 75.4356C45.7315 75.375 45.7687 75.3451 45.8438 75.3451L48.3532 75.3451C48.3903 75.3451 48.4146 75.3524 48.4259 75.3694C48.438 75.3855 48.4437 75.4073 48.4437 75.4356L48.4437 75.5899C48.4437 75.6562 48.4114 75.6885 48.3459 75.6885Z" fill="white"/>
<path d="M50.5385 75.6174C50.3236 75.6174 50.154 75.6449 50.0304 75.699C49.9068 75.7539 49.8106 75.8323 49.7436 75.9349C49.6757 76.0391 49.6313 76.166 49.6103 76.3154C49.5892 76.4665 49.5731 76.6378 49.5642 76.8301L51.5266 76.8301C51.5218 76.6847 51.5096 76.5392 51.4919 76.393C51.4733 76.2476 51.4297 76.1175 51.3618 76.002C51.2939 75.8873 51.1962 75.7943 51.0677 75.7241C50.9393 75.653 50.7631 75.6174 50.5385 75.6174ZM50.5385 75.2749C50.8326 75.2749 51.0701 75.3193 51.2495 75.4074C51.4297 75.4962 51.571 75.6118 51.6745 75.7548C51.7763 75.8969 51.8457 76.061 51.8805 76.2452C51.916 76.4302 51.933 76.6176 51.933 76.8091C51.933 76.9173 51.9136 77.0014 51.874 77.0619C51.8336 77.1225 51.7585 77.1524 51.6462 77.1524L49.5642 77.1524C49.5731 77.3867 49.5909 77.5871 49.6167 77.7527C49.6426 77.9183 49.6894 78.0524 49.7573 78.155C49.8244 78.2576 49.9205 78.3328 50.0449 78.3788C50.1677 78.4265 50.3325 78.4499 50.5385 78.4499C50.6088 78.4499 50.6928 78.4459 50.7906 78.4386C50.8892 78.4322 50.9894 78.4225 51.0928 78.4112C51.1954 78.399 51.2939 78.3893 51.3901 78.3788C51.4854 78.3699 51.5646 78.3627 51.6252 78.3586C51.6712 78.3538 51.7019 78.3716 51.7157 78.4144L51.7367 78.5267C51.7512 78.5784 51.7254 78.6172 51.6591 78.6454C51.6034 78.6648 51.529 78.6842 51.4361 78.7052C51.3416 78.7262 51.2422 78.7448 51.1348 78.7618C51.0265 78.7779 50.9183 78.7901 50.8084 78.7998C50.6985 78.8094 50.5991 78.8135 50.5103 78.8135C50.1976 78.8135 49.9504 78.765 49.771 78.6664C49.5909 78.5687 49.4559 78.4378 49.3646 78.2746C49.2734 78.1106 49.216 77.9199 49.1934 77.7026C49.17 77.4861 49.1578 77.2607 49.1578 77.0264C49.1578 76.826 49.17 76.6216 49.1934 76.4132C49.216 76.2056 49.2734 76.0173 49.3646 75.8493C49.4559 75.6812 49.5933 75.5431 49.7783 75.4356C49.9625 75.3282 50.2162 75.2749 50.5385 75.2749Z" fill="white"/>
<path d="M55.2899 78.7294C55.2826 78.7488 55.2648 78.7577 55.2365 78.7577L54.9562 78.7577C54.9328 78.7577 54.9166 78.7505 54.9077 78.7367C54.898 78.7222 54.8867 78.706 54.873 78.6882L53.9754 77.335L53.0851 78.6882C53.0713 78.706 53.0592 78.7222 53.0503 78.7367C53.0406 78.7505 53.0245 78.7577 53.0011 78.7577L52.7134 78.7577C52.686 78.7577 52.6682 78.7488 52.6609 78.7294C52.6545 78.7117 52.6577 78.6923 52.6714 78.6737L53.7653 77.0126L52.7207 75.4283C52.707 75.4057 52.7037 75.3855 52.7102 75.3694C52.7175 75.3532 52.7345 75.3451 52.7627 75.3451L53.0431 75.3451C53.0665 75.3451 53.0827 75.35 53.0924 75.3621C53.1021 75.3734 53.1134 75.3912 53.1271 75.4146L53.9754 76.6968L54.8302 75.4146C54.8398 75.3912 54.8495 75.3734 54.8584 75.3621C54.8673 75.35 54.8867 75.3451 54.9142 75.3451L55.1945 75.3451C55.2228 75.3451 55.2406 75.3532 55.2479 75.3694C55.2543 75.3855 55.2511 75.4057 55.2365 75.4283L54.1855 77.0126L55.2858 78.6737C55.2955 78.6923 55.2971 78.7117 55.2899 78.7294Z" fill="white"/>
<path d="M58.7945 78.7577L58.616 78.7577C58.54 78.7577 58.5021 78.7278 58.5021 78.6664L58.5021 77.1177L56.5744 77.1177L56.5744 78.6664C56.5744 78.7278 56.5389 78.7577 56.4678 78.7577L56.282 78.7577C56.2157 78.7577 56.1826 78.7278 56.1826 78.6664L56.1826 75.4356C56.1826 75.375 56.2157 75.3451 56.282 75.3451L56.4678 75.3451C56.5389 75.3451 56.5744 75.375 56.5744 75.4356L56.5744 76.7743L58.5021 76.7743L58.5021 75.4356C58.5021 75.375 58.54 75.3451 58.616 75.3451L58.7945 75.3451C58.8616 75.3451 58.8947 75.375 58.8947 75.4356L58.8947 78.6664C58.8947 78.7278 58.8616 78.7577 58.7945 78.7577Z" fill="white"/>
<path d="M61.3072 75.6174C61.1012 75.6174 60.9355 75.6497 60.8095 75.7127C60.6835 75.7758 60.5849 75.8695 60.5154 75.9939C60.4451 76.1183 60.3967 76.2678 60.3716 76.4439C60.3458 76.6192 60.3328 76.8196 60.3328 77.0442C60.3328 77.2688 60.3458 77.4691 60.3716 77.6453C60.3967 77.8206 60.4451 77.9708 60.5154 78.0944C60.5849 78.2189 60.6835 78.3126 60.8095 78.3756C60.9355 78.4386 61.1012 78.4709 61.3072 78.4709C61.5172 78.4709 61.6885 78.4394 61.8218 78.3788C61.9551 78.3182 62.0593 78.2269 62.1337 78.1058C62.2096 77.983 62.2597 77.8343 62.288 77.659C62.3162 77.4837 62.3308 77.2785 62.3308 77.0442C62.3308 76.8147 62.3179 76.6119 62.292 76.4366C62.2662 76.2605 62.2153 76.1118 62.1409 75.9899C62.0658 75.8687 61.9624 75.7758 61.8291 75.7127C61.6966 75.6497 61.5221 75.6174 61.3072 75.6174ZM61.3072 78.8135C60.9848 78.8135 60.7319 78.761 60.5502 78.6527C60.3676 78.5453 60.231 78.4039 60.1406 78.2286C60.0493 78.0532 59.9927 77.8585 59.9717 77.6436C59.9507 77.4287 59.9402 77.2114 59.9402 76.9917C59.9402 76.8139 59.9531 76.6249 59.979 76.4237C60.0048 76.2233 60.0654 76.0375 60.1616 75.8671C60.2569 75.6958 60.395 75.5552 60.5744 75.4429C60.7546 75.3306 60.9986 75.2749 61.3072 75.2749C61.6206 75.2749 61.8703 75.3225 62.0569 75.4179C62.2435 75.514 62.3865 75.6425 62.4843 75.8032C62.5821 75.9648 62.6467 76.1482 62.6774 76.3542C62.7073 76.5594 62.7226 76.7719 62.7226 76.9917C62.7226 77.2066 62.7113 77.4231 62.6879 77.6404C62.6645 77.8577 62.6055 78.0524 62.5126 78.2253C62.4188 78.3982 62.2775 78.5396 62.0884 78.6495C61.8994 78.7594 61.6384 78.8135 61.3072 78.8135Z" fill="white"/>
<path d="M66.3864 75.3451C66.4527 75.3451 66.485 75.375 66.485 75.4356L66.485 78.6664C66.485 78.7278 66.4543 78.7577 66.3929 78.7577L66.1998 78.7577C66.1287 78.7577 66.0932 78.7278 66.0932 78.6664L66.0932 75.6877L64.6842 75.6877L64.5299 77.5798C64.5161 77.7446 64.4959 77.8997 64.4701 78.0468C64.4442 78.1938 64.3966 78.3247 64.3271 78.4394C64.2568 78.5533 64.1542 78.6446 64.0185 78.7125C63.8827 78.7795 63.7002 78.8143 63.4715 78.8143C63.4061 78.8143 63.3738 78.7876 63.3738 78.7367L63.3738 78.5897C63.3738 78.5566 63.3794 78.5364 63.3915 78.5307C63.4028 78.5234 63.4247 78.517 63.4578 78.5121C63.5976 78.4984 63.7098 78.4701 63.7939 78.4281C63.8779 78.3861 63.9458 78.3247 63.9975 78.2423C64.0484 78.1615 64.0871 78.0548 64.113 77.924C64.138 77.7931 64.1607 77.6291 64.1792 77.4336L64.3336 75.6529C64.3432 75.5309 64.374 75.4502 64.4281 75.4073C64.4822 75.3653 64.5679 75.3451 64.685 75.3451L66.3864 75.3451Z" fill="white"/>
<path d="M68.9071 75.6174C68.7011 75.6174 68.5355 75.6497 68.4095 75.7127C68.2834 75.7758 68.1857 75.8695 68.1154 75.9939C68.0451 76.1183 67.9974 76.2678 67.9716 76.4439C67.9465 76.6192 67.9336 76.8196 67.9336 77.0442C67.9336 77.2688 67.9465 77.4691 67.9716 77.6453C67.9974 77.8206 68.0451 77.9708 68.1154 78.0944C68.1857 78.2189 68.2834 78.3126 68.4095 78.3756C68.5355 78.4386 68.7011 78.4709 68.9071 78.4709C69.1172 78.4709 69.2893 78.4394 69.4226 78.3788C69.5559 78.3182 69.6593 78.2269 69.7344 78.1058C69.8096 77.983 69.8605 77.8343 69.8879 77.659C69.9162 77.4837 69.9308 77.2785 69.9308 77.0442C69.9308 76.8147 69.9178 76.6119 69.892 76.4366C69.8661 76.2605 69.816 76.1118 69.7417 75.9899C69.6666 75.8687 69.5632 75.7758 69.4299 75.7127C69.2966 75.6497 69.122 75.6174 68.9071 75.6174ZM68.9071 78.8135C68.5848 78.8135 68.3327 78.761 68.1501 78.6527C67.9684 78.5453 67.8318 78.4039 67.7405 78.2286C67.6492 78.0532 67.5935 77.8585 67.5725 77.6436C67.5515 77.4287 67.541 77.2114 67.541 76.9917C67.541 76.8139 67.5539 76.6249 67.5789 76.4237C67.6048 76.2233 67.6662 76.0375 67.7615 75.8671C67.8577 75.6958 67.995 75.5552 68.1752 75.4429C68.3553 75.3306 68.5993 75.2749 68.9071 75.2749C69.2206 75.2749 69.4703 75.3225 69.6577 75.4179C69.8435 75.514 69.9865 75.6425 70.0851 75.8032C70.182 75.9648 70.2467 76.1482 70.2774 76.3542C70.3081 76.5594 70.3226 76.7719 70.3226 76.9917C70.3226 77.2066 70.3113 77.4231 70.2879 77.6404C70.2652 77.8577 70.2063 78.0524 70.1125 78.2253C70.0196 78.3982 69.8774 78.5396 69.6884 78.6495C69.4993 78.7594 69.2392 78.8135 68.9071 78.8135Z" fill="white"/>
<path d="M73.6495 75.6675C73.635 75.6804 73.6067 75.6885 73.5647 75.6885L71.7429 75.6885L71.7429 78.66C71.7429 78.7254 71.7097 78.7577 71.6443 78.7577L71.469 78.7577C71.3995 78.7577 71.364 78.7254 71.364 78.66L71.364 75.4356C71.364 75.375 71.3963 75.3451 71.4617 75.3451L73.5728 75.3451C73.6374 75.3451 73.6697 75.375 73.6697 75.4356L73.6697 75.5899C73.6697 75.6279 73.6625 75.6529 73.6495 75.6675Z" fill="white"/>
<path d="M74.5496 75.4429C74.5496 75.3774 74.5819 75.3451 74.6465 75.3451L74.8364 75.3451C74.897 75.3451 74.9277 75.3774 74.9277 75.4429L74.9277 78.1057L75.8107 76.8793L76.8836 75.4283C76.907 75.4057 76.9272 75.3855 76.9442 75.3694C76.9604 75.3532 76.9878 75.3451 77.0258 75.3451L77.1898 75.3451C77.2561 75.3451 77.29 75.375 77.29 75.4356L77.29 78.66C77.29 78.7254 77.2544 78.7577 77.1825 78.7577L77.004 78.7577C76.9321 78.7577 76.8965 78.7254 76.8965 78.66L76.8965 75.9195L76.1403 76.9916L74.8994 78.6882C74.8865 78.706 74.8703 78.7222 74.8541 78.7367C74.838 78.7505 74.8105 78.7577 74.7742 78.7577L74.6409 78.7577C74.5803 78.7577 74.5496 78.7254 74.5496 78.66L74.5496 75.4429Z" fill="white"/>
<path d="M78.6271 76.6273C78.6432 76.7533 78.6739 76.8543 78.7184 76.9286C78.7628 77.0038 78.8266 77.0555 78.9106 77.0862C78.9947 77.1169 79.1045 77.1322 79.2403 77.1322C79.338 77.1322 79.4463 77.1144 79.5659 77.0789C79.6846 77.0442 79.8034 77.0021 79.9205 76.9529C80.0369 76.9036 80.1451 76.8551 80.2461 76.8058C80.3463 76.7565 80.4222 76.7186 80.4739 76.6903L80.4739 75.4566C80.4739 75.3863 80.5063 75.3516 80.5717 75.3516L80.7543 75.3516C80.7915 75.3516 80.8157 75.3581 80.8278 75.3734C80.8391 75.3863 80.8448 75.4146 80.8448 75.4566L80.8448 78.6454C80.8448 78.7206 80.8141 78.7577 80.7543 78.7577L80.5717 78.7577C80.5345 78.7577 80.5079 78.7505 80.4909 78.7367C80.4748 78.723 80.4667 78.6923 80.4667 78.6454L80.4667 76.9916C80.4206 77.0248 80.3528 77.0676 80.2639 77.1209C80.175 77.175 80.0748 77.2284 79.9625 77.2825C79.8502 77.3366 79.7274 77.3819 79.5941 77.419C79.4608 77.4562 79.3267 77.4756 79.191 77.4756C78.9761 77.4756 78.8056 77.4457 78.6796 77.3875C78.5535 77.3293 78.4566 77.2494 78.3887 77.1492C78.3209 77.049 78.2764 76.9286 78.2554 76.7889C78.2344 76.6483 78.2239 76.494 78.2239 76.3259L78.2239 75.4566C78.2239 75.3863 78.2595 75.3516 78.329 75.3516L78.5107 75.3516C78.5487 75.3516 78.5729 75.3581 78.5851 75.3734C78.5964 75.3863 78.602 75.4146 78.602 75.4566L78.602 76.1433C78.602 76.3397 78.6109 76.5012 78.6271 76.6273Z" fill="white"/>
<path d="M83.2644 75.6174C83.0503 75.6174 82.8807 75.6449 82.7562 75.699C82.6334 75.7539 82.5373 75.8323 82.4694 75.9349C82.4016 76.0391 82.3571 76.166 82.3361 76.3154C82.3159 76.4665 82.2998 76.6378 82.2909 76.8301L84.2533 76.8301C84.2484 76.6847 84.2363 76.5392 84.2186 76.393C84.1992 76.2476 84.1563 76.1175 84.0885 76.002C84.0206 75.8873 83.9229 75.7943 83.7944 75.7241C83.6659 75.653 83.489 75.6174 83.2644 75.6174ZM83.2644 75.2749C83.5585 75.2749 83.7968 75.3193 83.9762 75.4074C84.1563 75.4962 84.2977 75.6118 84.4003 75.7548C84.5029 75.8969 84.5716 76.061 84.6072 76.2452C84.6427 76.4302 84.6597 76.6176 84.6597 76.8091C84.6597 76.9173 84.6395 77.0014 84.5999 77.0619C84.5595 77.1225 84.4844 77.1524 84.3721 77.1524L82.2909 77.1524C82.2998 77.3867 82.3175 77.5871 82.3434 77.7527C82.3684 77.9183 82.4161 78.0524 82.484 78.155C82.551 78.2576 82.6464 78.3328 82.7708 78.3788C82.8944 78.4265 83.0592 78.4499 83.2644 78.4499C83.3355 78.4499 83.4195 78.4459 83.5173 78.4386C83.615 78.4322 83.7152 78.4225 83.8194 78.4112C83.9212 78.399 84.0206 78.3893 84.1159 78.3788C84.2121 78.3699 84.2905 78.3627 84.3511 78.3586C84.3979 78.3538 84.4286 78.3716 84.4423 78.4144L84.4633 78.5267C84.4771 78.5784 84.452 78.6172 84.3858 78.6454C84.33 78.6648 84.2549 78.6842 84.162 78.7052C84.0683 78.7262 83.9681 78.7448 83.8606 78.7618C83.7532 78.7779 83.6449 78.7901 83.5351 78.7998C83.4252 78.8094 83.325 78.8135 83.2369 78.8135C82.9243 78.8135 82.6771 78.765 82.4977 78.6664C82.3176 78.5687 82.1826 78.4378 82.0905 78.2746C82 78.1106 81.9427 77.9199 81.9193 77.7026C81.8958 77.4861 81.8837 77.2607 81.8837 77.0264C81.8837 76.826 81.8958 76.6216 81.9193 76.4132C81.9427 76.2056 82 76.0173 82.0905 75.8493C82.1826 75.6812 82.32 75.5431 82.505 75.4356C82.6884 75.3282 82.9421 75.2749 83.2644 75.2749Z" fill="white"/>
<path d="M86.9364 75.274C86.997 75.274 87.0721 75.2773 87.161 75.2821C87.2498 75.2861 87.3403 75.2942 87.434 75.3063C87.5278 75.3176 87.619 75.333 87.7079 75.3516C87.7968 75.3702 87.876 75.3944 87.9462 75.4219C87.9834 75.4356 88.0036 75.455 88.0052 75.4784C88.0076 75.5018 88.0093 75.5229 88.0093 75.5406L87.981 75.6602C87.9761 75.6836 87.9624 75.6974 87.939 75.7014C87.9155 75.7071 87.8873 75.7071 87.855 75.7014C87.7944 75.6974 87.7257 75.6909 87.6481 75.6812C87.5714 75.6723 87.4906 75.6634 87.4066 75.6562C87.3217 75.6497 87.2393 75.644 87.1577 75.6392C87.0761 75.6343 86.9994 75.6319 86.9299 75.6319C86.7473 75.6319 86.597 75.6545 86.4775 75.699C86.3587 75.7434 86.265 75.8194 86.1971 75.9268C86.1293 76.0351 86.0832 76.1781 86.0566 76.355C86.0315 76.5335 86.0186 76.7557 86.0186 77.0231C86.0186 77.2994 86.0331 77.5305 86.0606 77.7155C86.0889 77.8997 86.1365 78.0476 86.2044 78.1582C86.2723 78.2681 86.3636 78.3465 86.4807 78.3933C86.5979 78.4402 86.7473 78.4628 86.9299 78.4628C86.976 78.4628 87.0398 78.462 87.1198 78.4564C87.1981 78.4515 87.2838 78.4459 87.3751 78.4394C87.4663 78.4321 87.5568 78.4249 87.6481 78.4184C87.7386 78.4111 87.8218 78.4022 87.897 78.3933C87.9527 78.3933 87.9834 78.4144 87.9883 78.4564L88.0093 78.546C88.0141 78.5695 88.0117 78.5905 88.002 78.6115C87.9923 78.6317 87.9697 78.6511 87.9317 78.6697C87.8194 78.7157 87.6699 78.7496 87.4833 78.7723C87.2967 78.7957 87.1141 78.807 86.9364 78.807C86.6463 78.807 86.4145 78.7626 86.2391 78.6737C86.0638 78.5848 85.9297 78.462 85.8368 78.3021C85.7431 78.1437 85.6809 77.9555 85.651 77.7381C85.6203 77.5208 85.6049 77.2841 85.6049 77.0264C85.6049 76.7977 85.6203 76.5772 85.651 76.3647C85.6809 76.1522 85.7431 75.9648 85.8368 75.804C85.9297 75.6424 86.0638 75.514 86.2391 75.4178C86.4145 75.3225 86.6463 75.274 86.9364 75.274Z" fill="white"/>
<path d="M89.3076 78.681C89.3076 78.7327 89.2817 78.7577 89.23 78.7577L88.9868 78.7577C88.9392 78.7577 88.9158 78.7327 88.9158 78.681L88.9158 75.4219C88.9158 75.3702 88.9392 75.3443 88.9868 75.3443L89.23 75.3443C89.2817 75.3443 89.3076 75.3702 89.3076 75.4219L89.3076 76.8446L89.9103 76.8446C89.9718 76.8446 90.037 76.8389 90.107 76.8268C90.1771 76.8155 90.246 76.7889 90.3139 76.746C90.3813 76.7048 90.4456 76.645 90.5067 76.5675C90.5673 76.4907 90.6185 76.3889 90.6608 76.2629L90.9408 75.4356C90.9596 75.375 90.9993 75.3443 91.0599 75.3443L91.2349 75.3443C91.2866 75.3443 91.3159 75.354 91.3227 75.3726C91.33 75.3912 91.3264 75.4194 91.3122 75.4566L91.039 76.2766C90.9732 76.4681 90.9011 76.6232 90.8217 76.7428C90.7423 76.8624 90.6373 76.9399 90.5067 76.9779C90.5903 77.0013 90.6629 77.0328 90.7235 77.0724C90.7841 77.112 90.8384 77.1613 90.8849 77.2195C90.9314 77.2776 90.9716 77.3479 91.004 77.4295C91.0369 77.5119 91.072 77.6032 91.1091 77.7066L91.4245 78.6454C91.434 78.6834 91.435 78.7117 91.4283 78.7303C91.4209 78.7488 91.3942 78.7577 91.3472 78.7577L91.1445 78.7577C91.1163 78.7577 91.0928 78.7537 91.074 78.744C91.0557 78.7343 91.0411 78.7117 91.0322 78.6737L90.7376 77.7769C90.6958 77.6501 90.6477 77.5491 90.5939 77.4723C90.5401 77.3948 90.4795 77.335 90.4116 77.293C90.3437 77.251 90.2716 77.2227 90.1943 77.209C90.1175 77.1944 90.0345 77.188 89.9462 77.188L89.3076 77.188L89.3076 78.681Z" fill="white"/>
<path d="M92.3422 75.4429C92.3422 75.3774 92.3746 75.3451 92.4399 75.3451L92.6295 75.3451C92.6901 75.3451 92.721 75.3774 92.721 75.4429L92.721 78.1057L93.6039 76.8793L94.6764 75.4283C94.6999 75.4057 94.7202 75.3855 94.737 75.3694C94.7531 75.3532 94.7808 75.3451 94.8185 75.3451L94.983 75.3451C95.0494 75.3451 95.0828 75.375 95.0828 75.4356L95.0828 78.66C95.0828 78.7254 95.0473 78.7577 94.9757 78.7577L94.7971 78.7577C94.7255 78.7577 94.6899 78.7254 94.6899 78.66L94.6899 75.9195L93.9335 76.9916L92.6928 78.6882C92.6791 78.706 92.6635 78.7222 92.6473 78.7367C92.6311 78.7505 92.6039 78.7577 92.5668 78.7577L92.4336 78.7577C92.373 78.7577 92.3422 78.7254 92.3422 78.66L92.3422 75.4429Z" fill="white"/>
<path d="M97.524 74.8895C97.3411 74.8895 97.1651 74.8434 96.9943 74.7521C96.824 74.6608 96.6897 74.5154 96.5915 74.3142C96.5821 74.2957 96.5716 74.2698 96.5601 74.2375C96.5487 74.2044 96.5544 74.1769 96.5773 74.1535L96.6829 74.0695C96.72 74.0412 96.755 74.0484 96.7879 74.0905C96.8485 74.1737 96.9071 74.2448 96.9634 74.3005C97.0188 74.3563 97.0763 74.4031 97.1348 74.4403C97.1933 74.4783 97.2549 74.5049 97.3202 74.5211C97.3856 74.538 97.4582 74.5461 97.5375 74.5461C97.6781 74.5461 97.7993 74.5098 97.9022 74.437C98.0052 74.3643 98.1221 74.2472 98.2528 74.0832C98.2852 74.0509 98.3202 74.0436 98.3577 74.0622L98.4628 74.1389C98.4863 74.1575 98.491 74.1834 98.4769 74.2165C98.4628 74.2488 98.4507 74.2771 98.4418 74.3005C98.3342 74.5065 98.199 74.656 98.0355 74.7489C97.8719 74.8426 97.7016 74.8895 97.524 74.8895ZM96.1992 75.4429C96.1992 75.3774 96.2316 75.3451 96.2968 75.3451L96.4865 75.3451C96.547 75.3451 96.5773 75.3774 96.5773 75.4429L96.5773 78.1057L97.4608 76.8793L98.5333 75.4283C98.5568 75.4057 98.5772 75.3855 98.5939 75.3694C98.6101 75.3532 98.6378 75.3451 98.6754 75.3451L98.84 75.3451C98.9063 75.3451 98.9397 75.375 98.9397 75.4356L98.9397 78.66C98.9397 78.7254 98.9042 78.7577 98.8326 78.7577L98.654 78.7577C98.5824 78.7577 98.5469 78.7254 98.5469 78.66L98.5469 75.9196L97.7904 76.9916L96.5497 78.6874C96.5356 78.7068 96.5205 78.723 96.5042 78.7367C96.4881 78.7513 96.4609 78.7577 96.4238 78.7577L96.2906 78.7577C96.2295 78.7577 96.1992 78.7254 96.1992 78.66L96.1992 75.4429Z" fill="white"/>
<path d="M47.0209 86.916C47.0112 86.9442 46.9975 86.9652 46.9789 86.979C46.9604 86.9927 46.9321 87 46.8949 87L46.6913 87C46.6404 87 46.6218 86.9717 46.6356 86.916L47.0137 85.8229L45.7808 82.4442C45.7711 82.4208 45.7687 82.4014 45.7735 82.3844C45.7776 82.3683 45.7937 82.3602 45.822 82.3602L46.0749 82.3602C46.112 82.3602 46.1387 82.386 46.1516 82.4369L47.084 84.9956L47.21 85.3809L47.3296 84.9746L48.1843 82.4167C48.1932 82.3933 48.2021 82.3771 48.2086 82.3674C48.2158 82.3578 48.2312 82.3537 48.2538 82.3537L48.5277 82.3537C48.556 82.3537 48.5713 82.3602 48.5737 82.3747C48.5762 82.3885 48.5721 82.407 48.5632 82.4305L47.0209 86.916Z" fill="white"/>
<path d="M52.0889 85.7663L51.9104 85.7663C51.8353 85.7663 51.7965 85.7364 51.7965 85.675L51.7965 84.1263L49.8688 84.1263L49.8688 85.675C49.8688 85.7364 49.8333 85.7663 49.7622 85.7663L49.5764 85.7663C49.5101 85.7663 49.477 85.7364 49.477 85.675L49.477 82.4442C49.477 82.3836 49.5101 82.3537 49.5764 82.3537L49.7622 82.3537C49.8333 82.3537 49.8688 82.3836 49.8688 82.4442L49.8688 83.7829L51.7965 83.7829L51.7965 82.4442C51.7965 82.3836 51.8353 82.3537 51.9104 82.3537L52.0889 82.3537C52.156 82.3537 52.1891 82.3836 52.1891 82.4442L52.1891 85.675C52.1891 85.7364 52.156 85.7663 52.0889 85.7663Z" fill="white"/>
<path d="M53.3056 82.4515C53.3056 82.386 53.338 82.3537 53.4034 82.3537L53.5924 82.3537C53.653 82.3537 53.6845 82.386 53.6845 82.4515L53.6845 85.1143L54.5668 83.8879L55.6397 82.4369C55.6631 82.4143 55.6833 82.3941 55.7003 82.378C55.7164 82.3618 55.7439 82.3537 55.7819 82.3537L55.9467 82.3537C56.0129 82.3537 56.0461 82.3836 56.0461 82.4442L56.0461 85.6686C56.0461 85.734 56.0105 85.7663 55.9386 85.7663L55.76 85.7663C55.689 85.7663 55.6534 85.734 55.6534 85.6686L55.6534 82.9281L54.8964 84.0002L53.6563 85.6968C53.6425 85.7146 53.6272 85.7308 53.6102 85.7461C53.5941 85.759 53.5674 85.7663 53.5302 85.7663L53.3969 85.7663C53.3363 85.7663 53.3056 85.734 53.3056 85.6686L53.3056 82.4515Z" fill="white"/>
<path d="M57.548 84.1618L57.548 85.4229L58.637 85.4229C58.7857 85.4229 58.9109 85.4044 59.0143 85.3672C59.1161 85.3292 59.1977 85.2824 59.2583 85.2234C59.3189 85.1652 59.3617 85.0998 59.3867 85.0271C59.4134 84.9552 59.4263 84.8817 59.4263 84.8065C59.4263 84.7217 59.4134 84.6417 59.3867 84.5641C59.3617 84.4874 59.3197 84.4195 59.2615 84.3614C59.2034 84.3032 59.1266 84.2547 59.0313 84.2176C58.9359 84.1804 58.8188 84.1618 58.6782 84.1618L57.548 84.1618ZM57.548 82.6971L57.548 83.8322L58.5667 83.8322C58.6419 83.8322 58.7227 83.8233 58.8115 83.8039C58.8996 83.7853 58.982 83.7554 59.0587 83.7134C59.1355 83.6722 59.1985 83.614 59.2478 83.5397C59.2963 83.4654 59.3213 83.3725 59.3213 83.261C59.3213 83.1075 59.2672 82.975 59.1605 82.8643C59.0531 82.7528 58.8665 82.6971 58.6015 82.6971L57.548 82.6971ZM58.6596 82.3537C59.0288 82.3537 59.2979 82.4361 59.4635 82.6017C59.6299 82.7682 59.7131 82.979 59.7131 83.236C59.7131 83.2925 59.7075 83.3531 59.6954 83.4185C59.6841 83.484 59.6622 83.5494 59.6307 83.6149C59.6008 83.6803 59.5556 83.7433 59.4958 83.8039C59.4368 83.8653 59.3569 83.9211 59.2575 83.9728C59.3698 84.0099 59.4619 84.0608 59.5346 84.1263C59.6065 84.1925 59.6647 84.2644 59.7059 84.3436C59.7487 84.4236 59.7778 84.5044 59.7939 84.5892C59.8101 84.6732 59.8182 84.75 59.8182 84.8203C59.8182 84.96 59.7915 85.0885 59.7374 85.2056C59.6841 85.3228 59.6089 85.423 59.5136 85.507C59.4175 85.591 59.3035 85.6556 59.1735 85.6993C59.0426 85.7445 58.898 85.7663 58.7388 85.7663L57.2886 85.7663C57.2369 85.7663 57.2014 85.7582 57.1836 85.7421C57.165 85.7259 57.1553 85.7009 57.1553 85.6686L57.1553 82.4369C57.1553 82.382 57.1901 82.3537 57.2603 82.3537L58.6596 82.3537Z" fill="white"/>
<path d="M62.1401 82.6268C61.9252 82.6268 61.7563 82.6534 61.6319 82.7076C61.5083 82.7625 61.4122 82.8409 61.3451 82.9435C61.2773 83.0477 61.2328 83.1745 61.2118 83.324C61.1908 83.4751 61.1755 83.6464 61.1666 83.8386L63.1282 83.8386C63.1241 83.694 63.112 83.5478 63.0934 83.4016C63.0749 83.2561 63.0312 83.1261 62.9642 83.0105C62.8963 82.8958 62.7977 82.8029 62.6701 82.7326C62.5416 82.6623 62.3647 82.6268 62.1401 82.6268ZM62.1401 82.2834C62.4342 82.2834 62.6717 82.3279 62.8519 82.4167C63.0312 82.5056 63.1726 82.6203 63.276 82.7633C63.3778 82.9055 63.4473 83.0695 63.482 83.2537C63.5176 83.4387 63.5345 83.6262 63.5345 83.8176C63.5345 83.9259 63.5152 84.0099 63.4756 84.0705C63.4352 84.1311 63.36 84.161 63.2477 84.161L61.1666 84.161C61.1755 84.3953 61.1932 84.5956 61.2183 84.7613C61.2441 84.9269 61.291 85.061 61.3589 85.1636C61.4267 85.267 61.5221 85.3413 61.6465 85.3882C61.7693 85.4351 61.9341 85.4585 62.1401 85.4585C62.2104 85.4585 62.2944 85.4544 62.3922 85.4472C62.4907 85.4407 62.5909 85.431 62.6943 85.4197C62.7969 85.4076 62.8963 85.3979 62.9916 85.3882C63.087 85.3793 63.1661 85.372 63.2267 85.3672C63.2728 85.3623 63.3043 85.3809 63.3172 85.4237L63.3382 85.5352C63.3528 85.5869 63.3269 85.6257 63.2615 85.654C63.2049 85.6734 63.1306 85.6928 63.0377 85.7138C62.9432 85.7348 62.8438 85.7534 62.7363 85.7703C62.6289 85.7865 62.5198 85.7986 62.4099 85.8083C62.3001 85.818 62.2007 85.8229 62.1118 85.8229C61.7992 85.8229 61.5519 85.7736 61.3726 85.675C61.1932 85.5772 61.0575 85.4464 60.9662 85.2832C60.8749 85.1192 60.8176 84.9285 60.7949 84.7112C60.7715 84.4947 60.7594 84.2693 60.7594 84.035C60.7594 83.8346 60.7715 83.6302 60.7949 83.4218C60.8176 83.2141 60.8749 83.0259 60.9662 82.8578C61.0575 82.6898 61.1949 82.5516 61.3799 82.4442C61.5641 82.3367 61.8177 82.2834 62.1401 82.2834Z" fill="white"/>
<path d="M64.9282 85.2969C65.1374 85.3615 65.3297 85.4092 65.505 85.4375C65.6787 85.465 65.85 85.4795 66.018 85.4795C66.1901 85.4795 66.3307 85.4536 66.4406 85.4019C66.5496 85.351 66.6369 85.267 66.7023 85.1523C66.7678 85.0376 66.8122 84.8841 66.8381 84.6918C66.8639 84.5003 66.876 84.2636 66.876 83.9824C66.876 83.7061 66.8655 83.4799 66.8421 83.3046C66.8179 83.1293 66.7799 82.9903 66.7266 82.8902C66.6732 82.7892 66.6005 82.7197 66.51 82.6833C66.4187 82.6454 66.3065 82.6268 66.1715 82.6268C66.073 82.6268 65.9655 82.6445 65.8467 82.6793C65.728 82.7148 65.61 82.7552 65.4937 82.8029C65.3774 82.8489 65.2691 82.8974 65.1697 82.9459C65.0695 82.996 64.9888 83.0364 64.9282 83.0687L64.9282 85.2969ZM64.9282 86.8885C64.9282 86.9345 64.9201 86.9644 64.9031 86.979C64.887 86.9927 64.8595 87 64.8215 87L64.6284 87C64.567 87 64.5355 86.962 64.5355 86.8877L64.5355 82.4587C64.5355 82.3884 64.567 82.3537 64.6284 82.3537L64.8215 82.3537C64.8595 82.3537 64.887 82.3602 64.9031 82.3739C64.9201 82.3884 64.9282 82.4159 64.9282 82.4587L64.9217 82.7665C64.9678 82.7342 65.0364 82.6906 65.1285 82.6373C65.219 82.584 65.3232 82.5306 65.4396 82.4789C65.5567 82.428 65.6811 82.3828 65.8144 82.3432C65.9477 82.3028 66.0818 82.2826 66.2176 82.2826C66.4236 82.2826 66.5949 82.3182 66.733 82.3884C66.8712 82.4587 66.9811 82.5646 67.0626 82.7068C67.1442 82.8498 67.2016 83.0283 67.2339 83.2432C67.2671 83.4581 67.2832 83.7086 67.2832 83.9929C67.2832 84.2927 67.263 84.5561 67.2242 84.7855C67.1838 85.0141 67.1152 85.2056 67.0174 85.3599C66.9205 85.5142 66.7855 85.6298 66.6159 85.7065C66.4454 85.7841 66.2329 85.8229 65.9768 85.8229C65.8411 85.8229 65.686 85.8083 65.5115 85.7784C65.337 85.7477 65.1447 85.6871 64.9354 85.595L64.9282 85.6104L64.9282 86.8885Z" fill="white"/>
<path d="M69.585 82.2834C69.6456 82.2834 69.7207 82.2858 69.8096 82.2907C69.8984 82.2947 69.9889 82.3028 70.0834 82.3149C70.1763 82.3262 70.2676 82.3416 70.3565 82.3602C70.4454 82.3796 70.5246 82.403 70.5948 82.4305C70.632 82.4442 70.6522 82.4636 70.6538 82.487C70.657 82.5104 70.6579 82.5314 70.6579 82.5492L70.6296 82.6688C70.6247 82.6922 70.611 82.706 70.5876 82.7108C70.5641 82.7156 70.5359 82.7156 70.5035 82.7108C70.443 82.706 70.3743 82.6995 70.2967 82.6898C70.22 82.6809 70.1392 82.672 70.0552 82.6647C69.9711 82.6583 69.8879 82.6526 69.8063 82.6478C69.7247 82.6429 69.6488 82.6413 69.5785 82.6413C69.3959 82.6413 69.2456 82.6631 69.1269 82.7076C69.0073 82.752 68.9136 82.8279 68.8457 82.9354C68.7779 83.0437 68.7318 83.1867 68.7051 83.3636C68.6801 83.5421 68.6672 83.7643 68.6672 84.0317C68.6672 84.308 68.6817 84.5391 68.7092 84.7241C68.7375 84.9083 68.7851 85.0562 68.853 85.1668C68.9209 85.2767 69.013 85.3551 69.1293 85.4019C69.2464 85.4488 69.3959 85.4722 69.5785 85.4722C69.6245 85.4722 69.6884 85.4706 69.7684 85.4649C69.8467 85.4601 69.9324 85.4544 70.0237 85.448C70.1149 85.4407 70.2054 85.4334 70.2967 85.427C70.388 85.4197 70.4704 85.4116 70.5456 85.4027C70.6013 85.4027 70.632 85.4229 70.6369 85.4649L70.6579 85.5546C70.6627 85.5781 70.6603 85.5991 70.6506 85.6201C70.6409 85.6403 70.6183 85.6597 70.5803 85.6782C70.468 85.7243 70.3185 85.7582 70.1319 85.7808C69.9453 85.8043 69.7627 85.8156 69.585 85.8156C69.2949 85.8156 69.0631 85.7711 68.8877 85.6823C68.7124 85.5934 68.5783 85.4706 68.4854 85.3106C68.3917 85.1523 68.3295 84.964 68.3004 84.7467C68.2689 84.5294 68.2543 84.2927 68.2543 84.035C68.2543 83.8063 68.2689 83.5858 68.3004 83.3733C68.3295 83.1608 68.3917 82.9734 68.4854 82.8126C68.5783 82.651 68.7124 82.5226 68.8877 82.4264C69.0631 82.3311 69.2949 82.2834 69.585 82.2834Z" fill="white"/>
<path d="M71.5643 82.4515C71.5643 82.386 71.5975 82.3537 71.6621 82.3537L71.8519 82.3537C71.9125 82.3537 71.9432 82.386 71.9432 82.4515L71.9432 85.1143L72.8263 83.8879L73.8992 82.4369C73.9226 82.4143 73.9428 82.3941 73.9598 82.378C73.9759 82.3618 74.0034 82.3537 74.0406 82.3537L74.2054 82.3537C74.2716 82.3537 74.3056 82.3836 74.3056 82.4442L74.3056 85.6686C74.3056 85.734 74.27 85.7663 74.1981 85.7663L74.0196 85.7663C73.9477 85.7663 73.9121 85.734 73.9121 85.6686L73.9121 82.9281L73.1559 84.0002L71.915 85.6968C71.902 85.7146 71.8859 85.7308 71.8697 85.7461C71.8536 85.759 71.8261 85.7663 71.7889 85.7663L71.6564 85.7663C71.5958 85.7663 71.5643 85.734 71.5643 85.6686L71.5643 82.4515Z" fill="white"/>
<path d="M77.7909 82.6971L76.7325 82.6971L76.7325 85.675C76.7325 85.7364 76.697 85.7663 76.6259 85.7663L76.4538 85.7663C76.3779 85.7663 76.3399 85.7364 76.3399 85.675L76.3399 82.6971L75.2888 82.6971C75.2137 82.6971 75.1765 82.6648 75.1765 82.5985L75.1765 82.4442C75.1765 82.3836 75.2137 82.3537 75.2888 82.3537L77.7982 82.3537C77.8353 82.3537 77.8596 82.3618 77.8709 82.378C77.883 82.3941 77.8886 82.4159 77.8886 82.4442L77.8886 82.5985C77.8886 82.6648 77.8563 82.6971 77.7909 82.6971Z" fill="white"/>
<path d="M79.9835 82.6268C79.7686 82.6268 79.5998 82.6534 79.4754 82.7076C79.3517 82.7625 79.2556 82.8409 79.1885 82.9435C79.1207 83.0477 79.0762 83.1745 79.0552 83.324C79.0342 83.4751 79.0189 83.6464 79.01 83.8386L80.9716 83.8386C80.9668 83.694 80.9554 83.5478 80.9369 83.4016C80.9183 83.2561 80.8746 83.1261 80.8076 83.0105C80.7397 82.8958 80.6412 82.8029 80.5135 82.7326C80.3843 82.6623 80.2081 82.6268 79.9835 82.6268ZM79.9835 82.2834C80.2776 82.2834 80.5151 82.3279 80.6953 82.4167C80.8746 82.5056 81.016 82.6203 81.1194 82.7633C81.2212 82.9055 81.2907 83.0695 81.3255 83.2537C81.361 83.4387 81.378 83.6262 81.378 83.8176C81.378 83.9259 81.3586 84.0099 81.319 84.0705C81.2786 84.1311 81.2035 84.161 81.0912 84.161L79.01 84.161C79.0189 84.3953 79.0367 84.5956 79.0617 84.7613C79.0876 84.9269 79.1344 85.061 79.2023 85.1636C79.2701 85.267 79.3655 85.3413 79.4899 85.3882C79.6127 85.4351 79.7775 85.4585 79.9835 85.4585C80.0538 85.4585 80.1378 85.4544 80.2356 85.4472C80.3342 85.4407 80.4343 85.431 80.5378 85.4197C80.6404 85.4076 80.7397 85.3979 80.8351 85.3882C80.9304 85.3793 81.0096 85.372 81.0702 85.3672C81.1162 85.3623 81.1477 85.3809 81.1606 85.4237L81.1817 85.5352C81.1962 85.5869 81.1703 85.6257 81.1049 85.654C81.0483 85.6734 80.974 85.6928 80.8811 85.7138C80.7866 85.7348 80.6872 85.7534 80.5798 85.7703C80.4715 85.7865 80.3632 85.7986 80.2534 85.8083C80.1435 85.818 80.0441 85.8229 79.9553 85.8229C79.6426 85.8229 79.3954 85.7736 79.216 85.675C79.0367 85.5772 78.9009 85.4464 78.8096 85.2832C78.7183 85.1192 78.661 84.9285 78.6384 84.7112C78.6149 84.4947 78.6028 84.2693 78.6028 84.035C78.6028 83.8346 78.6149 83.6302 78.6384 83.4218C78.661 83.2141 78.7183 83.0259 78.8096 82.8578C78.9009 82.6898 79.0383 82.5516 79.2233 82.4442C79.4075 82.3367 79.6612 82.2834 79.9835 82.2834Z" fill="white"/>
<path d="M84.6896 82.6971L83.6312 82.6971L83.6312 85.675C83.6312 85.7364 83.5957 85.7663 83.5246 85.7663L83.3525 85.7663C83.2766 85.7663 83.2386 85.7364 83.2386 85.675L83.2386 82.6971L82.1875 82.6971C82.1124 82.6971 82.0752 82.6648 82.0752 82.5985L82.0752 82.4442C82.0752 82.3836 82.1124 82.3537 82.1875 82.3537L84.6969 82.3537C84.7332 82.3537 84.7582 82.3618 84.7696 82.378C84.7817 82.3941 84.7865 82.4159 84.7865 82.4442L84.7865 82.5985C84.7865 82.6648 84.7542 82.6971 84.6896 82.6971Z" fill="white"/>
<path d="M1.71877e-05 42.5995C1.61593e-05 66.1263 19.0731 85.1983 42.6001 85.1983L42.6001 82.9629C42.6001 81.999 41.8447 81.1976 40.8817 81.1564C31.2183 80.7363 22.1924 76.7727 15.3098 69.8901C7.99263 62.5728 3.90866 52.5671 4.00723 42.2202C4.10337 32.1795 8.01041 22.7463 15.0424 15.5783C22.2894 8.19192 32.2516 4.00479 42.6001 4.00479C52.9082 4.00479 62.6006 8.01952 69.8896 15.3088C76.7746 22.1936 80.7373 31.2209 81.1566 40.887C81.1978 41.8478 82.0025 42.599 82.9647 42.599L85.1986 42.599C85.1986 19.0727 66.1271 -3.02755e-06 42.6001 -4.05595e-06C19.0949 -0.000489827 1.82151e-05 19.0941 1.71877e-05 42.5995ZM9.6141 42.5995C9.6141 60.8165 24.3826 75.5842 42.6001 75.5842L42.6001 73.3358C42.6001 72.3777 41.8536 71.5851 40.897 71.531C33.6994 71.1165 26.9978 68.0804 21.9007 62.8827C16.6962 57.5744 13.7183 50.4205 13.6221 42.9876C13.5179 34.9728 16.6421 27.4292 22.3831 21.8352C27.7072 16.6477 34.8709 13.694 42.3044 13.6203C50.1556 13.543 57.5488 16.5636 63.091 22.1069C68.1631 27.1779 71.1232 33.7974 71.5312 40.899C71.5862 41.854 72.3787 42.599 73.3361 42.599L75.5845 42.599C75.5845 24.3825 60.8168 9.61392 42.6001 9.61392C24.4004 9.61392 9.6141 24.3993 9.6141 42.5995ZM42.2673 19.2498C29.6898 19.4248 19.4253 29.6897 19.25 42.2667C19.069 55.3155 29.592 65.9508 42.6001 65.9508L42.6001 63.6788C42.6001 62.7301 41.8657 61.9553 40.9205 61.8738C30.6948 60.9905 22.7175 52.1178 23.2806 41.5468C23.8034 31.7386 31.7386 23.8026 41.5474 23.2807C52.1181 22.7176 60.9905 30.6937 61.8743 40.92C61.9559 41.865 62.7307 42.599 63.6792 42.599L65.9518 42.599C65.9518 29.7028 55.4951 19.2483 42.6001 19.2477C42.4886 19.2477 42.3787 19.2483 42.2673 19.2498ZM107.072 46.3864C106.482 46.5035 105.934 46.6649 105.426 46.8702C104.918 47.0765 104.452 47.3242 104.029 47.6147C103.605 47.9051 103.228 48.2196 102.897 48.5582L104.277 50.4096C104.366 50.5224 104.47 50.6253 104.592 50.7178C104.712 50.8108 104.882 50.8572 105.1 50.8572C105.317 50.8572 105.521 50.7909 105.711 50.6577C105.9 50.5244 106.13 50.3793 106.4 50.222C106.67 50.0647 107.005 49.9196 107.404 49.7863C107.803 49.6536 108.325 49.5868 108.971 49.5868C109.544 49.5868 110.076 49.6756 110.568 49.8527C111.06 50.0302 111.497 50.2931 111.881 50.6394C112.264 50.9863 112.586 51.4121 112.848 51.9157C113.111 52.4198 113.302 52.9987 113.423 53.6516L105.946 53.6516L105.946 56.5798L113.448 56.5798C113.334 57.2735 113.137 57.8863 112.855 58.4187C112.572 58.951 112.229 59.3987 111.827 59.7617C111.423 60.1243 110.971 60.3991 110.471 60.5846C109.971 60.77 109.443 60.863 108.886 60.863C108.507 60.863 108.166 60.8447 107.864 60.8081C107.562 60.7721 107.277 60.7115 107.011 60.6268C106.745 60.5422 106.495 60.4294 106.261 60.2883C106.027 60.1473 105.789 59.9676 105.547 59.7498C105.451 59.6687 105.345 59.603 105.232 59.5502C105.119 59.4979 105.003 59.4713 104.882 59.4713C104.785 59.4713 104.688 59.4896 104.592 59.5261C104.495 59.5622 104.402 59.6249 104.313 59.7132L102.692 61.4194C103.402 62.3472 104.291 63.0467 105.359 63.5184C106.429 63.9901 107.693 64.2263 109.153 64.2263C110.491 64.2263 111.691 63.9985 112.752 63.5425C113.812 63.0869 114.712 62.4579 115.45 61.655C116.188 60.853 116.754 59.9007 117.15 58.8C117.545 57.6987 117.743 56.5035 117.743 55.2126C117.743 53.8982 117.529 52.6904 117.101 51.5892C116.673 50.4884 116.073 49.5387 115.299 48.7399C114.524 47.9416 113.597 47.3205 112.516 46.8765C111.435 46.4335 110.245 46.2114 108.947 46.2114C108.286 46.2114 107.66 46.2699 107.072 46.3864ZM124.591 46.4053L117.767 64.0325L120.961 64.0325C121.3 64.0325 121.584 63.9421 121.815 63.7603C122.044 63.579 122.204 63.3752 122.292 63.1496L123.333 60.0768L130.035 60.0768L131.076 63.1496C131.189 63.4076 131.354 63.6192 131.572 63.7843C131.789 63.9499 132.076 64.0325 132.431 64.0325L135.6 64.0325L128.777 46.4053L124.591 46.4053ZM125.898 52.4903C126.018 52.1836 126.147 51.8211 126.285 51.4016C126.422 50.9826 126.551 50.5265 126.672 50.0345C126.809 50.5187 126.946 50.968 127.083 51.3838C127.22 51.7987 127.349 52.1596 127.471 52.4662L129.104 57.2939L124.277 57.2939L125.898 52.4903ZM88.4981 46.4052L88.4981 64.0325L92.5866 64.0325L92.5866 58.1407L94.7161 58.1407C95.9337 58.1407 96.989 57.9939 97.8797 57.6987C98.7715 57.4047 99.5071 56.9956 100.088 56.4711C100.669 55.9466 101.1 55.3176 101.382 54.5836C101.665 53.8496 101.806 53.0436 101.806 52.1638C101.806 51.3494 101.668 50.5909 101.395 49.8893C101.12 49.1876 100.694 48.5785 100.118 48.0623C99.5415 47.5462 98.8075 47.1413 97.9163 46.8467C97.0251 46.552 95.9583 46.4052 94.7161 46.4052L88.4981 46.4052ZM92.5866 49.4655L94.7161 49.4655C95.2321 49.4655 95.6783 49.5303 96.0534 49.6593C96.4285 49.7884 96.7388 49.9723 96.9849 50.21C97.2304 50.4482 97.4143 50.7319 97.535 51.0631C97.6562 51.3938 97.7168 51.7605 97.7168 52.1638C97.7168 53.0754 97.4827 53.7854 97.0146 54.2932C96.5471 54.8015 95.7812 55.0559 94.7161 55.0559L92.5866 55.0559L92.5866 49.4655ZM81.971 46.4052C81.7771 46.4052 81.5913 46.4413 81.4144 46.5134C81.2366 46.5865 81.071 46.6816 80.9183 46.7981C80.7648 46.9151 80.6258 47.0462 80.5006 47.1909C80.3762 47.3362 80.2696 47.4815 80.1807 47.6272L74.821 56.7856C74.6102 57.1162 74.3977 57.5013 74.1796 57.9412C73.9614 58.3805 73.7602 58.8548 73.5744 59.3626C73.6633 58.7817 73.7199 58.2353 73.7441 57.7228C73.7675 57.2108 73.7805 56.725 73.7805 56.2653L73.7805 46.4052L69.6666 46.4052L69.6666 64.0325L72.752 64.0325C72.9459 64.0325 73.1309 63.9964 73.3078 63.9232C73.4856 63.8512 73.6512 63.7561 73.8047 63.6396C73.9574 63.5226 74.0971 63.3915 74.2216 63.2462C74.346 63.101 74.4534 62.9558 74.5423 62.8105L79.902 53.6516C80.1112 53.3209 80.3253 52.936 80.5426 52.4966C80.7608 52.0567 80.9627 51.5792 81.1486 51.0631C81.0678 51.6435 81.0128 52.1899 80.9854 52.7019C80.9571 53.2144 80.9425 53.7002 80.9425 54.1599L80.9425 64.0325L85.0564 64.0325L85.0564 46.4052L81.971 46.4052ZM63.104 46.4052C62.9262 46.4052 62.7711 46.4095 62.6386 46.4167C62.5045 46.4251 62.3857 46.4491 62.2807 46.4899C62.1765 46.5302 62.0812 46.5923 61.9971 46.6774C61.9123 46.7621 61.8291 46.8806 61.7491 47.0343L57.224 55.9388C57.0544 56.2454 56.8952 56.5677 56.7457 56.9063C56.5971 57.2453 56.4533 57.5922 56.3159 57.9469C56.1794 57.6 56.0364 57.2615 55.8869 56.9308C55.7375 56.6001 55.5824 56.2814 55.4216 55.9748L50.8844 47.0343C50.8036 46.8806 50.7204 46.7621 50.6364 46.6774C50.5515 46.5923 50.457 46.5302 50.352 46.4899C50.2469 46.4491 50.1274 46.4251 49.9949 46.4167C49.8616 46.4095 49.7065 46.4052 49.5295 46.4052L46.4078 46.4052L46.4078 64.0325L50.0135 64.0325L50.0135 53.8941C50.0135 53.66 50.0054 53.404 49.9884 53.1256C49.9731 52.8471 49.9529 52.5634 49.9286 52.2724L54.6104 61.3588C54.7559 61.6414 54.9514 61.8545 55.197 62.0003C55.4434 62.1455 55.7229 62.2176 56.038 62.2176L56.5947 62.2176C56.9089 62.2176 57.1893 62.1455 57.4357 62.0003C57.6821 61.8545 57.8768 61.6414 58.0222 61.3588L62.7049 52.297C62.6717 52.5791 62.6499 52.8576 62.6386 53.1318C62.6257 53.4061 62.62 53.66 62.62 53.8941L62.62 64.0325L66.2249 64.0325L66.2249 46.4052L63.104 46.4052Z" fill="white"/>
<path d="M44.4365 41.2763C43.8766 41.6023 43.3151 41.9251 42.7536 42.2485C40.4834 43.5592 38.214 44.8699 35.943 46.1781C35.8597 46.2256 35.8258 46.2805 35.8274 46.376C35.8315 46.7877 35.829 47.1994 35.829 47.612C35.829 48.0269 35.8282 48.4422 35.829 48.858C35.829 48.987 35.8323 48.9897 35.9446 48.9249C36.2298 48.7609 36.5141 48.5963 36.7985 48.4312C38.0306 47.7197 39.261 47.0077 40.4923 46.2966C41.8811 45.4937 43.2715 44.6918 44.6611 43.8894C45.372 43.4793 46.083 43.0692 46.7931 42.6586C46.899 42.5975 46.8982 42.5881 46.794 42.5275C46.0709 42.1105 45.3486 41.6942 44.628 41.2757C44.5932 41.2554 44.5633 41.2454 44.5334 41.2454C44.5019 41.2454 44.4712 41.2559 44.4365 41.2763Z" fill="white"/>
<path d="M35.829 36.364C35.829 37.7667 35.829 39.1689 35.829 40.571C35.829 41.98 35.829 43.3889 35.8298 44.7979C35.8298 44.8276 35.8298 44.8579 35.8323 44.8871C35.8347 44.918 35.8533 44.9284 35.8807 44.9159C35.905 44.9049 35.9284 44.8909 35.951 44.8773C36.1296 44.7744 36.3073 44.6709 36.4859 44.5679C37.6404 43.9029 38.7949 43.2374 39.9485 42.5718C41.0481 41.9376 42.1477 41.3024 43.2456 40.6661C43.2917 40.6394 43.3716 40.6274 43.37 40.5679C43.3676 40.5188 43.2917 40.5042 43.2472 40.4775C42.2721 39.9138 41.2969 39.3512 40.321 38.788C38.8732 37.9521 37.4255 37.1169 35.9785 36.2815C35.9163 36.2454 35.8799 36.2245 35.8589 36.2245C35.829 36.2245 35.829 36.2658 35.829 36.364Z" fill="white"/>
<path d="M31.5923 42.5854C31.5875 48.671 36.5303 53.6193 42.592 53.6052C43.4556 53.6094 44.2943 53.5012 45.1046 53.3131L45.1046 53.2834L45.1046 52.9203L45.1046 52.0108L45.1046 51.7365C44.6772 51.853 44.2417 51.9398 43.7974 51.9956C43.2755 52.0614 42.7511 52.0881 42.226 52.0656C41.2816 52.0254 40.3597 51.8535 39.4662 51.539C38.3602 51.1488 37.3608 50.5746 36.4689 49.8135C35.6989 49.1568 35.0502 48.3968 34.521 47.5342C33.8117 46.3781 33.377 45.1264 33.2065 43.7818C33.1451 43.2933 33.1185 42.8027 33.1354 42.3101C33.1694 41.293 33.3609 40.3051 33.7099 39.348C33.9587 38.6684 34.2811 38.0248 34.6786 37.4198C34.9654 36.9826 35.2853 36.5719 35.6391 36.1869C36.3291 35.4362 37.1208 34.8167 38.0104 34.3208C38.449 34.0759 38.9055 33.8685 39.3781 33.6971C40.0334 33.4595 40.708 33.297 41.3987 33.2087C41.7485 33.1648 42.0992 33.1424 42.4522 33.1365C43.3143 33.123 44.1626 33.2197 44.9979 33.4375C45.62 33.6004 46.2195 33.8245 46.7971 34.1083C46.8868 34.1522 46.9224 34.2039 46.9224 34.3062C46.9199 37.0306 46.9199 39.7556 46.9199 42.4799L46.9199 42.5995L46.9199 45.0987L47.2415 45.0987L48.2255 45.0987L48.5471 45.0987L48.5471 42.6016C48.5471 40.2157 48.5471 37.8299 48.5479 35.4441C48.5479 35.4013 48.5463 35.3573 48.5519 35.3145C48.5576 35.2727 48.577 35.2659 48.6141 35.2884C48.6335 35.2999 48.6513 35.3155 48.6699 35.3307C49.578 36.094 50.3212 36.9919 50.8949 38.0311C51.4887 39.1093 51.8587 40.2597 52.0033 41.4821C52.0364 41.7663 52.0542 42.0515 52.0639 42.3367C52.1002 43.4787 51.9282 44.5889 51.5622 45.6692C51.5541 45.6906 51.5436 45.711 51.5363 45.7324C51.5444 45.7408 51.5541 45.746 51.5622 45.7539C51.6785 45.8698 51.7835 46.013 51.8861 46.1712L51.9015 46.1483L52.051 46.4424L52.0889 46.5177L52.16 46.6571L52.5163 47.3608C53.1982 45.9466 53.5973 44.3689 53.611 42.6925C53.6595 36.5693 48.7159 31.6226 42.6542 31.5934C42.6372 31.5934 42.6178 31.5934 42.6001 31.5934C36.4794 31.5929 31.5972 36.5772 31.5923 42.5854Z" fill="white"/>
</svg>
