<svg width="100" height="64" viewBox="0 0 100 64" fill="none" xmlns="http://www.w3.org/2000/svg">
<path d="M35.7092 50.3395C35.7092 50.0928 35.6367 49.9128 35.4929 49.7981C35.3485 49.6828 35.1625 49.6269 34.9354 49.6305L34.2395 49.6305L34.2395 51.0955L35.0079 51.0955C35.0489 51.0955 35.109 51.0871 35.1886 51.0717C35.2677 51.0562 35.3455 51.0224 35.4228 50.9689C35.5 50.916 35.5672 50.8399 35.6237 50.7407C35.6807 50.6414 35.7092 50.5077 35.7092 50.3395ZM36.0129 50.3318C36.0129 50.456 35.9945 50.5778 35.9565 50.6985C35.9184 50.8185 35.8596 50.9267 35.7788 51.0224C35.6979 51.1192 35.5945 51.1971 35.4691 51.2571C35.3437 51.3177 35.1916 51.3475 35.0127 51.3475L34.2395 51.3475L34.2395 52.7037C34.2395 52.734 34.2347 52.7548 34.224 52.7655C34.2139 52.7756 34.1949 52.781 34.1676 52.781L34.0226 52.781C33.9952 52.781 33.9768 52.7756 33.9661 52.7655C33.956 52.7548 33.9506 52.734 33.9506 52.7037L33.9506 49.4296C33.9506 49.4052 33.956 49.388 33.9661 49.3779C33.9768 49.3684 33.9976 49.363 34.0279 49.363L34.9972 49.363C35.1417 49.363 35.276 49.3838 35.3996 49.4248C35.5232 49.4664 35.6308 49.5271 35.7217 49.6079C35.8132 49.6887 35.8846 49.7891 35.9357 49.9092C35.988 50.0299 36.0129 50.1707 36.0129 50.3318Z" fill="#0AFF6F"/>
<path d="M37.5879 50.4709C37.4363 50.4709 37.3145 50.4946 37.2218 50.541C37.1291 50.5873 37.0565 50.6563 37.0054 50.7478C36.9537 50.8393 36.9187 50.9493 36.8996 51.0788C36.8806 51.2078 36.8717 51.3552 36.8717 51.5204C36.8717 51.6856 36.8806 51.833 36.8996 51.9626C36.9187 52.0916 36.9537 52.2021 37.0054 52.293C37.0565 52.3846 37.1291 52.4535 37.2218 52.4999C37.3145 52.5462 37.4363 52.57 37.5879 52.57C37.7424 52.57 37.869 52.5468 37.967 52.5022C38.0645 52.4577 38.1412 52.3905 38.1965 52.3014C38.2517 52.211 38.2886 52.1017 38.3094 51.9727C38.3302 51.8431 38.3409 51.6928 38.3409 51.5204C38.3409 51.3516 38.3314 51.2025 38.3123 51.0735C38.2933 50.9439 38.2559 50.8346 38.2018 50.7448C38.1465 50.6557 38.0699 50.5873 37.9724 50.541C37.8743 50.4946 37.746 50.4709 37.5879 50.4709ZM37.5879 52.822C37.3507 52.822 37.1653 52.7828 37.031 52.7037C36.8967 52.6247 36.7962 52.5207 36.7297 52.3917C36.6625 52.2627 36.6209 52.1195 36.6055 51.9614C36.59 51.8033 36.5823 51.6434 36.5823 51.4818C36.5823 51.351 36.5918 51.212 36.6108 51.064C36.6298 50.9166 36.6744 50.7799 36.7451 50.6545C36.8153 50.5285 36.9169 50.4251 37.0488 50.3425C37.1814 50.2599 37.3608 50.2189 37.5879 50.2189C37.8185 50.2189 38.0021 50.2539 38.14 50.3241C38.2767 50.3948 38.3819 50.4893 38.4538 50.6075C38.5257 50.7264 38.5733 50.8613 38.5958 51.0123C38.6184 51.1638 38.6291 51.3201 38.6291 51.4818C38.6291 51.6399 38.6208 51.7986 38.6036 51.9584C38.5869 52.1183 38.5429 52.2621 38.4746 52.3893C38.4063 52.5165 38.3016 52.6205 38.1626 52.7013C38.0235 52.7816 37.8321 52.822 37.5879 52.822Z" fill="#0AFF6F"/>
<path d="M40.3164 50.2182C40.361 50.2182 40.4163 50.2206 40.4816 50.2236C40.547 50.2272 40.6136 50.2331 40.6831 50.242C40.7515 50.2503 40.8186 50.2616 40.884 50.2747C40.9494 50.289 41.0076 50.3062 41.0593 50.327C41.0866 50.3371 41.1015 50.3508 41.1027 50.3686C41.1051 50.3858 41.1057 50.4007 41.1057 50.4144L41.0849 50.5023C41.0813 50.5196 41.0712 50.5297 41.054 50.5326C41.0367 50.5368 41.0159 50.5368 40.9921 50.5326C40.9476 50.5297 40.8971 50.5249 40.84 50.5172C40.7835 50.5107 40.7241 50.5047 40.6623 50.4994C40.6005 50.4946 40.5393 50.4899 40.4793 50.4869C40.4192 50.4833 40.3634 50.4815 40.3117 50.4815C40.1773 50.4815 40.0668 50.4982 39.9794 50.5303C39.8915 50.563 39.8225 50.6194 39.7726 50.6985C39.7227 50.7781 39.6888 50.8827 39.6692 51.0135C39.6508 51.1448 39.6413 51.3082 39.6413 51.505C39.6413 51.7082 39.652 51.8776 39.6722 52.0137C39.693 52.1498 39.728 52.2586 39.7779 52.34C39.8279 52.4202 39.8956 52.4785 39.9812 52.5129C40.0674 52.5474 40.1773 52.564 40.3117 52.564C40.3455 52.564 40.3925 52.5628 40.4513 52.5593C40.509 52.5557 40.572 52.5516 40.6391 52.5468C40.7063 52.5415 40.7728 52.5355 40.84 52.5314C40.9072 52.526 40.9678 52.5195 41.0231 52.5129C41.0641 52.5129 41.0867 52.5284 41.0902 52.5593L41.1057 52.6253C41.1092 52.6425 41.1075 52.6579 41.1003 52.6734C41.0932 52.6883 41.0765 52.7025 41.0486 52.7162C40.966 52.7501 40.8561 52.775 40.7188 52.7917C40.5815 52.8089 40.4472 52.8172 40.3164 52.8172C40.103 52.8172 39.9325 52.7845 39.8035 52.7192C39.6745 52.6538 39.5759 52.5628 39.5075 52.4458C39.4386 52.3293 39.3934 52.1908 39.3708 52.0309C39.3483 51.8711 39.337 51.6969 39.337 51.5073C39.337 51.3391 39.3483 51.1763 39.3708 51.0206C39.3934 50.8643 39.4386 50.7264 39.5075 50.6075C39.5759 50.4893 39.6745 50.3948 39.8035 50.324C39.9325 50.2539 40.103 50.2182 40.3164 50.2182Z" fill="#0AFF6F"/>
<path d="M42.6361 50.2182C42.6806 50.2182 42.7359 50.2206 42.8013 50.2236C42.8667 50.2272 42.9332 50.2331 43.0022 50.242C43.0711 50.2503 43.1377 50.2616 43.2036 50.2747C43.2684 50.289 43.3267 50.3062 43.379 50.327C43.4063 50.3371 43.4206 50.3508 43.4223 50.3686C43.4241 50.3858 43.4247 50.4007 43.4247 50.4144L43.4039 50.5023C43.4009 50.5196 43.3908 50.5297 43.3736 50.5326C43.3564 50.5368 43.3356 50.5368 43.3118 50.5326C43.2672 50.5297 43.2161 50.5249 43.1597 50.5172C43.1032 50.5107 43.0438 50.5047 42.9814 50.4994C42.9195 50.4946 42.8583 50.4899 42.7983 50.4869C42.7389 50.4833 42.6824 50.4815 42.6307 50.4815C42.497 50.4815 42.3864 50.4982 42.2985 50.5303C42.2111 50.563 42.1422 50.6194 42.0922 50.6985C42.0423 50.7781 42.0079 50.8827 41.9888 51.0135C41.9704 51.1448 41.9609 51.3082 41.9609 51.505C41.9609 51.7082 41.971 51.8776 41.9912 52.0137C42.012 52.1498 42.0477 52.2586 42.0976 52.34C42.1469 52.4202 42.2147 52.4785 42.3009 52.5129C42.387 52.5474 42.497 52.564 42.6307 52.564C42.6652 52.564 42.7115 52.5628 42.7704 52.5593C42.8286 52.5557 42.891 52.5516 42.9582 52.5468C43.0259 52.5415 43.0919 52.5355 43.1597 52.5314C43.2262 52.526 43.2874 52.5195 43.3421 52.5129C43.3837 52.5129 43.4063 52.5284 43.4099 52.5593L43.4247 52.6253C43.4283 52.6425 43.4271 52.6579 43.42 52.6734C43.4128 52.6883 43.3956 52.7025 43.3683 52.7162C43.2856 52.7501 43.1757 52.775 43.0384 52.7917C42.9005 52.8089 42.7668 52.8172 42.6361 52.8172C42.4227 52.8172 42.2521 52.7845 42.1232 52.7192C41.9942 52.6538 41.8955 52.5628 41.8272 52.4458C41.7576 52.3293 41.7125 52.1908 41.6905 52.0309C41.6673 51.8711 41.6566 51.6969 41.6566 51.5073C41.6566 51.3391 41.6673 51.1763 41.6905 51.0206C41.7125 50.8643 41.7576 50.7264 41.8272 50.6075C41.8955 50.4893 41.9942 50.3948 42.1232 50.324C42.2521 50.2539 42.4227 50.2182 42.6361 50.2182Z" fill="#0AFF6F"/>
<path d="M44.0921 50.3425C44.0921 50.2943 44.1159 50.2706 44.164 50.2706L44.3037 50.2706C44.3483 50.2706 44.3709 50.2943 44.3709 50.3425L44.3709 52.3014L45.0205 51.3992L45.8091 50.3318C45.8264 50.3151 45.8412 50.3003 45.8537 50.2884C45.8656 50.2765 45.8858 50.2706 45.9137 50.2706L46.035 50.2706C46.0837 50.2706 46.1081 50.2925 46.1081 50.3371L46.1081 52.7091C46.1081 52.7566 46.0819 52.781 46.0296 52.781L45.8977 52.781C45.8454 52.781 45.8192 52.7566 45.8192 52.7091L45.8192 50.6925L45.2629 51.4818L44.3501 52.7299C44.34 52.7429 44.3287 52.7548 44.3168 52.7655C44.3049 52.7756 44.2847 52.781 44.2573 52.781L44.1593 52.781C44.1147 52.781 44.0921 52.7566 44.0921 52.7091L44.0921 50.3425Z" fill="#0AFF6F"/>
<path d="M47.9041 49.9354C47.7692 49.9354 47.6402 49.9015 47.5142 49.8343C47.3888 49.7672 47.2902 49.6602 47.2183 49.5122C47.2111 49.4985 47.2034 49.4795 47.1951 49.4557C47.1868 49.4314 47.1909 49.4112 47.2076 49.3933L47.2854 49.3315C47.3128 49.3107 47.3383 49.3167 47.3627 49.3476C47.4073 49.4088 47.4501 49.4611 47.4917 49.5021C47.5321 49.5431 47.5749 49.5776 47.6177 49.6049C47.6605 49.6329 47.7062 49.6525 47.7544 49.6643C47.8019 49.6762 47.8554 49.6828 47.9142 49.6828C48.0176 49.6828 48.1068 49.6554 48.1823 49.6025C48.2577 49.5491 48.3439 49.4629 48.4402 49.3422C48.464 49.3185 48.4895 49.3131 48.5175 49.3268L48.5947 49.3832C48.612 49.3969 48.6155 49.4159 48.6048 49.4403C48.5947 49.4641 48.5858 49.4849 48.5793 49.5021C48.5002 49.6537 48.4004 49.7636 48.2803 49.832C48.1597 49.9003 48.0349 49.9354 47.9041 49.9354ZM46.9294 50.3425C46.9294 50.2943 46.9532 50.27 47.0013 50.27L47.141 50.27C47.1856 50.27 47.2076 50.2943 47.2076 50.3425L47.2076 52.3014L47.8578 51.3992L48.6464 50.3318C48.6637 50.3145 48.6785 50.3003 48.691 50.2884C48.7029 50.2765 48.7231 50.27 48.751 50.27L48.8723 50.27C48.921 50.27 48.9454 50.2926 48.9454 50.3371L48.9454 52.7091C48.9454 52.7572 48.9192 52.781 48.8669 52.781L48.735 52.781C48.6827 52.781 48.6565 52.7572 48.6565 52.7091L48.6565 50.6931L48.1002 51.4818L47.1874 52.7293C47.1767 52.7429 47.166 52.7548 47.1541 52.7655C47.1422 52.7756 47.122 52.781 47.0947 52.781L46.9966 52.781C46.9514 52.781 46.9294 52.7572 46.9294 52.7091L46.9294 50.3425Z" fill="#0AFF6F"/>
<path d="M50.6879 50.2182C50.7325 50.2182 50.7878 50.2206 50.8532 50.2236C50.9185 50.2272 50.9851 50.2331 51.0546 50.242C51.123 50.2503 51.1901 50.2616 51.2555 50.2747C51.3209 50.289 51.3791 50.3062 51.4308 50.327C51.4582 50.3371 51.473 50.3508 51.4742 50.3686C51.4766 50.3858 51.4772 50.4007 51.4772 50.4144L51.4564 50.5023C51.4528 50.5196 51.4427 50.5297 51.4255 50.5326C51.4082 50.5368 51.3874 50.5368 51.3637 50.5326C51.3191 50.5297 51.2686 50.5249 51.2115 50.5172C51.1551 50.5107 51.0956 50.5047 51.0338 50.4994C50.972 50.4946 50.9108 50.4899 50.8508 50.4869C50.7907 50.4833 50.7349 50.4815 50.6832 50.4815C50.5489 50.4815 50.4383 50.4982 50.3509 50.5303C50.263 50.563 50.194 50.6194 50.1441 50.6985C50.0948 50.7781 50.0603 50.8827 50.0413 51.0135C50.0223 51.1448 50.0134 51.3082 50.0134 51.505C50.0134 51.7082 50.0235 51.8776 50.0443 52.0137C50.0645 52.1498 50.0996 52.2586 50.1495 52.34C50.1994 52.4202 50.2672 52.4785 50.3527 52.5129C50.4389 52.5474 50.5489 52.564 50.6832 52.564C50.7171 52.564 50.764 52.5628 50.8228 52.5593C50.8805 52.5557 50.9435 52.5516 51.0106 52.5468C51.0778 52.5415 51.1444 52.5355 51.2115 52.5314C51.2787 52.526 51.3393 52.5195 51.3946 52.5129C51.4356 52.5129 51.4582 52.5284 51.4617 52.5593L51.4772 52.6253C51.4808 52.6425 51.479 52.6579 51.4718 52.6734C51.4647 52.6883 51.4481 52.7025 51.4201 52.7162C51.3375 52.7501 51.2276 52.775 51.0903 52.7917C50.953 52.8089 50.8187 52.8172 50.6879 52.8172C50.4746 52.8172 50.304 52.7845 50.1756 52.7192C50.0467 52.6538 49.948 52.5628 49.8791 52.4458C49.8101 52.3293 49.7644 52.1908 49.743 52.0309C49.7198 51.8711 49.7091 51.6969 49.7091 51.5073C49.7091 51.3391 49.7198 51.1763 49.743 51.0206C49.7644 50.8643 49.8101 50.7264 49.8791 50.6075C49.948 50.4893 50.0467 50.3948 50.1756 50.324C50.304 50.2539 50.4746 50.2182 50.6879 50.2182Z" fill="#0AFF6F"/>
<path d="M52.4328 52.7245C52.4328 52.7625 52.4138 52.781 52.3758 52.781L52.1969 52.781C52.1618 52.781 52.144 52.7625 52.144 52.7245L52.144 50.327C52.144 50.289 52.1618 50.27 52.1969 50.27L52.3758 50.27C52.4138 50.27 52.4328 50.289 52.4328 50.327L52.4328 51.3736L52.8762 51.3736C52.9214 51.3736 52.9695 51.3695 53.0206 51.3605C53.0723 51.3522 53.1228 51.3326 53.1728 51.3011C53.2227 51.2708 53.2696 51.2268 53.3148 51.1698C53.3594 51.1133 53.3968 51.0384 53.4283 50.9451L53.634 50.3371C53.6482 50.2925 53.6773 50.27 53.7219 50.27L53.8503 50.27C53.8883 50.27 53.9103 50.2771 53.9151 50.2908C53.9204 50.3044 53.918 50.3252 53.9073 50.3526L53.7065 50.9558C53.6577 51.0967 53.6048 51.2108 53.5466 51.2987C53.4883 51.3867 53.4111 51.4437 53.3148 51.4717C53.376 51.4889 53.4295 51.5121 53.4741 51.5412C53.5187 51.5703 53.5591 51.6066 53.5929 51.6494C53.6274 51.6922 53.6565 51.7439 53.6809 51.8039C53.7047 51.8645 53.7308 51.9317 53.7582 52.0078L53.99 52.6984C53.9971 52.7263 53.9977 52.7471 53.9929 52.7602C53.9876 52.7744 53.968 52.781 53.9329 52.781L53.7837 52.781C53.7635 52.781 53.7457 52.778 53.732 52.7709C53.7189 52.7637 53.7077 52.7471 53.7011 52.7192L53.4848 52.0595C53.4539 51.9661 53.4188 51.8913 53.379 51.8348C53.3392 51.7783 53.2946 51.7344 53.2447 51.7035C53.1948 51.6726 53.1419 51.6518 53.0848 51.6417C53.0283 51.631 52.9671 51.6262 52.9023 51.6262L52.4328 51.6262L52.4328 52.7245Z" fill="#0AFF6F"/>
<path d="M54.6645 50.3425C54.6645 50.2943 54.6883 50.2706 54.7365 50.2706L54.8761 50.2706C54.9207 50.2706 54.9433 50.2943 54.9433 50.3425L54.9433 52.3014L55.5929 51.3992L56.3815 50.3318C56.3994 50.3151 56.4142 50.3003 56.4261 50.2884C56.438 50.2765 56.4588 50.2706 56.4861 50.2706L56.6074 50.2706C56.6561 50.2706 56.6805 50.2925 56.6805 50.3371L56.6805 52.7091C56.6805 52.7566 56.6549 52.781 56.602 52.781L56.4707 52.781C56.4178 52.781 56.3916 52.7566 56.3916 52.7091L56.3916 50.6925L55.8354 51.4818L54.9225 52.7299C54.9124 52.7429 54.9011 52.7548 54.8892 52.7655C54.8773 52.7756 54.8571 52.781 54.8298 52.781L54.7317 52.781C54.6871 52.781 54.6645 52.7566 54.6645 52.7091L54.6645 50.3425Z" fill="#0AFF6F"/>
<path d="M58.4765 49.9354C58.3422 49.9354 58.2126 49.9015 58.0866 49.8343C57.9618 49.7672 57.8626 49.6602 57.7907 49.5122C57.7835 49.4985 57.7758 49.4795 57.7675 49.4557C57.7592 49.4314 57.7633 49.4112 57.78 49.3933L57.8578 49.3315C57.8852 49.3107 57.9107 49.3167 57.9351 49.3476C57.9797 49.4088 58.0224 49.4611 58.0641 49.5021C58.1051 49.5431 58.1473 49.5776 58.19 49.6049C58.2334 49.6329 58.2786 49.6525 58.3267 49.6643C58.3749 49.6762 58.4284 49.6828 58.4866 49.6828C58.59 49.6828 58.6792 49.6554 58.7546 49.6025C58.8307 49.5491 58.9169 49.4629 59.0126 49.3422C59.0364 49.3185 59.0625 49.3131 59.0898 49.3268L59.1671 49.3832C59.1843 49.3969 59.1879 49.4159 59.1778 49.4403C59.1671 49.4641 59.1582 49.4849 59.1517 49.5021C59.0726 49.6537 58.9734 49.7636 58.8527 49.832C58.7327 49.9003 58.6073 49.9354 58.4765 49.9354ZM57.5018 50.3425C57.5018 50.2943 57.5256 50.27 57.5737 50.27L57.7134 50.27C57.758 50.27 57.78 50.2943 57.78 50.3425L57.78 52.3014L58.4302 51.3992L59.2188 50.3318C59.2366 50.3145 59.2515 50.3003 59.2634 50.2884C59.2753 50.2765 59.2961 50.27 59.3234 50.27L59.4447 50.27C59.4934 50.27 59.5178 50.2926 59.5178 50.3371L59.5178 52.7091C59.5178 52.7572 59.4922 52.781 59.4393 52.781L59.308 52.781C59.2551 52.781 59.2289 52.7572 59.2289 52.7091L59.2289 50.6931L58.6726 51.4818L57.7598 52.7293C57.7497 52.7429 57.7384 52.7548 57.7265 52.7655C57.7146 52.7756 57.6944 52.781 57.667 52.781L57.569 52.781C57.5244 52.781 57.5018 52.7572 57.5018 52.7091L57.5018 50.3425Z" fill="#0AFF6F"/>
<path d="M35.5648 55.6789L34.7862 55.6789L34.7862 57.8696C34.7862 57.9147 34.7601 57.9367 34.7078 57.9367L34.5812 57.9367C34.5253 57.9367 34.4974 57.9147 34.4974 57.8696L34.4974 55.6789L33.7242 55.6789C33.6689 55.6789 33.6416 55.6551 33.6416 55.6064L33.6416 55.4929C33.6416 55.4483 33.6689 55.4263 33.7242 55.4263L35.5702 55.4263C35.5975 55.4263 35.6153 55.4316 35.6237 55.4441C35.6326 55.456 35.6367 55.4721 35.6367 55.4929L35.6367 55.6064C35.6367 55.6551 35.613 55.6789 35.5648 55.6789Z" fill="#0AFF6F"/>
<path d="M37.1778 55.6266C37.0197 55.6266 36.8949 55.6468 36.804 55.6866C36.713 55.727 36.6423 55.7847 36.593 55.8602C36.5431 55.9368 36.5104 56.0301 36.4949 56.1401C36.4795 56.2512 36.4676 56.3772 36.461 56.5187L37.9046 56.5187C37.9011 56.4117 37.8922 56.3047 37.8791 56.1971C37.8654 56.0902 37.8333 55.9945 37.7834 55.9095C37.7335 55.8251 37.6616 55.7568 37.5671 55.705C37.4726 55.6527 37.343 55.6266 37.1778 55.6266ZM37.1778 55.3746C37.3941 55.3746 37.5689 55.4073 37.7008 55.4721C37.8333 55.5374 37.9373 55.6224 38.0134 55.7276C38.0883 55.8322 38.1394 55.9529 38.165 56.0884C38.1911 56.2245 38.2036 56.3624 38.2036 56.5032C38.2036 56.5829 38.1893 56.6447 38.1602 56.6892C38.1305 56.7338 38.0752 56.7558 37.9926 56.7558L36.461 56.7558C36.4676 56.9282 36.4806 57.0756 36.4997 57.1974C36.5187 57.3192 36.5532 57.4179 36.6031 57.4934C36.6524 57.5688 36.7231 57.6241 36.8147 57.658C36.905 57.6931 37.0262 57.7103 37.1778 57.7103C37.2295 57.7103 37.2913 57.7073 37.3632 57.702C37.4357 57.6972 37.5094 57.6901 37.5855 57.6818C37.661 57.6728 37.7335 57.6657 37.8042 57.658C37.8743 57.6515 37.9326 57.6461 37.9771 57.6431C38.011 57.6396 38.0336 57.6526 38.0437 57.6841L38.0592 57.7668C38.0699 57.8048 38.0508 57.8333 38.0021 57.8541C37.9611 57.8684 37.9064 57.8826 37.8381 57.8981C37.7685 57.9135 37.6954 57.9272 37.6164 57.9397C37.5368 57.9516 37.4571 57.9605 37.3763 57.9676C37.2955 57.9748 37.2224 57.9777 37.157 57.9777C36.927 57.9777 36.7451 57.9421 36.6132 57.8696C36.4806 57.7977 36.3814 57.7014 36.3142 57.5813C36.2471 57.4607 36.2049 57.3204 36.1882 57.1605C36.171 57.0013 36.1621 56.8354 36.1621 56.6631C36.1621 56.5157 36.171 56.3653 36.1882 56.212C36.2049 56.0593 36.2471 55.9208 36.3142 55.7972C36.3814 55.6735 36.4824 55.5719 36.6185 55.4929C36.754 55.4138 36.9406 55.3746 37.1778 55.3746Z" fill="#0AFF6F"/>
<path d="M40.673 57.9159C40.6677 57.9302 40.6546 57.9367 40.6338 57.9367L40.4276 57.9367C40.4103 57.9367 40.3984 57.9314 40.3919 57.9213C40.3848 57.9106 40.3764 57.8987 40.3663 57.8856L39.706 56.8901L39.0511 57.8856C39.041 57.8987 39.0321 57.9106 39.0256 57.9213C39.0184 57.9314 39.0065 57.9367 38.9893 57.9367L38.7777 57.9367C38.7575 57.9367 38.7444 57.9302 38.7391 57.9159C38.7343 57.9028 38.7367 57.8886 38.7468 57.8749L39.5515 56.653L38.7831 55.4875C38.773 55.4709 38.7706 55.456 38.7753 55.4441C38.7807 55.4322 38.7932 55.4263 38.814 55.4263L39.0202 55.4263C39.0374 55.4263 39.0493 55.4299 39.0565 55.4388C39.0636 55.4471 39.0719 55.4602 39.082 55.4774L39.706 56.4206L40.3348 55.4774C40.342 55.4602 40.3491 55.4471 40.3556 55.4388C40.3622 55.4299 40.3764 55.4263 40.3966 55.4263L40.6029 55.4263C40.6237 55.4263 40.6368 55.4322 40.6421 55.4441C40.6469 55.456 40.6445 55.4709 40.6338 55.4875L39.8606 56.653L40.67 57.8749C40.6772 57.8886 40.6784 57.9028 40.673 57.9159Z" fill="#0AFF6F"/>
<path d="M43.2512 57.9367L43.1198 57.9367C43.064 57.9367 43.036 57.9147 43.036 57.8696L43.036 56.7302L41.618 56.7302L41.618 57.8696C41.618 57.9147 41.5918 57.9367 41.5395 57.9367L41.4028 57.9367C41.3541 57.9367 41.3297 57.9147 41.3297 57.8696L41.3297 55.4929C41.3297 55.4483 41.3541 55.4263 41.4028 55.4263L41.5395 55.4263C41.5918 55.4263 41.618 55.4483 41.618 55.4929L41.618 56.4777L43.036 56.4777L43.036 55.4929C43.036 55.4483 43.064 55.4263 43.1198 55.4263L43.2512 55.4263C43.3005 55.4263 43.3249 55.4483 43.3249 55.4929L43.3249 57.8696C43.3249 57.9147 43.3005 57.9367 43.2512 57.9367Z" fill="#0AFF6F"/>
<path d="M45.0995 55.6266C44.948 55.6266 44.8261 55.6504 44.7334 55.6967C44.6407 55.7431 44.5682 55.812 44.5171 55.9035C44.4654 55.9951 44.4297 56.105 44.4113 56.2346C44.3923 56.3636 44.3828 56.5109 44.3828 56.6762C44.3828 56.8414 44.3923 56.9888 44.4113 57.1183C44.4297 57.2473 44.4654 57.3579 44.5171 57.4488C44.5682 57.5403 44.6407 57.6093 44.7334 57.6556C44.8261 57.702 44.948 57.7257 45.0995 57.7257C45.254 57.7257 45.38 57.7026 45.4781 57.658C45.5762 57.6134 45.6528 57.5463 45.7075 57.4571C45.7634 57.3668 45.8002 57.2574 45.821 57.1284C45.8418 56.9995 45.8525 56.8485 45.8525 56.6762C45.8525 56.5074 45.843 56.3582 45.824 56.2292C45.805 56.0997 45.7675 55.9903 45.7129 55.9006C45.6576 55.8114 45.5815 55.7431 45.4835 55.6967C45.386 55.6504 45.2576 55.6266 45.0995 55.6266ZM45.0995 57.9777C44.8624 57.9777 44.6764 57.9391 44.5426 57.8595C44.4083 57.7804 44.3079 57.6764 44.2413 57.5474C44.1742 57.4185 44.1326 57.2752 44.1171 57.1172C44.1017 56.9591 44.0939 56.7992 44.0939 56.6375C44.0939 56.5068 44.1034 56.3677 44.1225 56.2197C44.1415 56.0723 44.1861 55.9356 44.2568 55.8102C44.3269 55.6842 44.4285 55.5808 44.5605 55.4982C44.693 55.4156 44.8725 55.3746 45.0995 55.3746C45.3301 55.3746 45.5138 55.4097 45.6511 55.4798C45.7883 55.5505 45.8935 55.645 45.9655 55.7633C46.0374 55.8822 46.0849 56.0171 46.1075 56.1686C46.1295 56.3196 46.1408 56.4759 46.1408 56.6375C46.1408 56.7956 46.1325 56.9549 46.1152 57.1148C46.098 57.2747 46.0546 57.4179 45.9862 57.5451C45.9173 57.6723 45.8133 57.7763 45.6742 57.8571C45.5352 57.9379 45.3432 57.9777 45.0995 57.9777Z" fill="#0AFF6F"/>
<path d="M48.836 55.4263C48.8847 55.4263 48.9085 55.4483 48.9085 55.4929L48.9085 57.8696C48.9085 57.9147 48.8859 57.9367 48.8408 57.9367L48.6987 57.9367C48.6464 57.9367 48.6203 57.9147 48.6203 57.8696L48.6203 55.6783L47.5838 55.6783L47.4703 57.0702C47.4601 57.1914 47.4453 57.3055 47.4263 57.4137C47.4072 57.5219 47.3722 57.6182 47.3211 57.7026C47.2694 57.7864 47.1939 57.8535 47.094 57.9034C46.9942 57.9528 46.8599 57.9783 46.6917 57.9783C46.6435 57.9783 46.6198 57.9587 46.6198 57.9213L46.6198 57.8131C46.6198 57.7887 46.6239 57.7739 46.6328 57.7697C46.6412 57.7644 46.6572 57.7596 46.6816 57.756C46.7844 57.7459 46.867 57.7251 46.9288 57.6942C46.9906 57.6633 47.0405 57.6182 47.0786 57.5575C47.116 57.4981 47.1446 57.4197 47.1636 57.3234C47.182 57.2271 47.1986 57.1064 47.2123 56.9626L47.3258 55.6527C47.333 55.563 47.3555 55.5036 47.3954 55.4721C47.4352 55.4412 47.4982 55.4263 47.5844 55.4263L48.836 55.4263Z" fill="#0AFF6F"/>
<path d="M50.6903 55.6266C50.5388 55.6266 50.4169 55.6504 50.3242 55.6967C50.2315 55.7431 50.1596 55.812 50.1079 55.9035C50.0562 55.9951 50.0211 56.105 50.0021 56.2346C49.9837 56.3636 49.9742 56.5109 49.9742 56.6762C49.9742 56.8414 49.9837 56.9888 50.0021 57.1183C50.0211 57.2473 50.0562 57.3579 50.1079 57.4488C50.1596 57.5403 50.2315 57.6093 50.3242 57.6556C50.4169 57.702 50.5388 57.7257 50.6903 57.7257C50.8448 57.7257 50.9714 57.7026 51.0695 57.658C51.1676 57.6134 51.2436 57.5463 51.2989 57.4571C51.3542 57.3668 51.3916 57.2574 51.4118 57.1284C51.4326 56.9995 51.4433 56.8485 51.4433 56.6762C51.4433 56.5074 51.4338 56.3582 51.4148 56.2292C51.3958 56.0997 51.3589 55.9903 51.3042 55.9006C51.249 55.8114 51.1729 55.7431 51.0748 55.6967C50.9768 55.6504 50.8484 55.6266 50.6903 55.6266ZM50.6903 57.9777C50.4532 57.9777 50.2678 57.9391 50.1334 57.8595C49.9997 57.7804 49.8993 57.6764 49.8321 57.5474C49.765 57.4185 49.7239 57.2752 49.7085 57.1172C49.693 56.9591 49.6853 56.7992 49.6853 56.6375C49.6853 56.5068 49.6948 56.3677 49.7132 56.2197C49.7323 56.0723 49.7774 55.9356 49.8476 55.8102C49.9183 55.6842 50.0193 55.5808 50.1519 55.4982C50.2844 55.4156 50.4639 55.3746 50.6903 55.3746C50.9209 55.3746 51.1046 55.4097 51.2424 55.4798C51.3791 55.5505 51.4843 55.645 51.5568 55.7633C51.6282 55.8822 51.6757 56.0171 51.6983 56.1686C51.7209 56.3196 51.7316 56.4759 51.7316 56.6375C51.7316 56.7956 51.7232 56.9549 51.706 57.1148C51.6894 57.2747 51.646 57.4179 51.577 57.5451C51.5087 57.6723 51.4041 57.7763 51.265 57.8571C51.126 57.9379 50.9346 57.9777 50.6903 57.9777Z" fill="#0AFF6F"/>
<path d="M54.179 55.6634C54.1683 55.6729 54.1475 55.6789 54.1166 55.6789L52.7764 55.6789L52.7764 57.8648C52.7764 57.9129 52.752 57.9367 52.7038 57.9367L52.5749 57.9367C52.5238 57.9367 52.4976 57.9129 52.4976 57.8648L52.4976 55.4929C52.4976 55.4483 52.5214 55.4263 52.5695 55.4263L54.1225 55.4263C54.17 55.4263 54.1938 55.4483 54.1938 55.4929L54.1938 55.6064C54.1938 55.6343 54.1885 55.6527 54.179 55.6634Z" fill="#0AFF6F"/>
<path d="M54.8411 55.4982C54.8411 55.4501 54.8648 55.4263 54.9124 55.4263L55.052 55.4263C55.0966 55.4263 55.1192 55.4501 55.1192 55.4982L55.1192 57.4571L55.7688 56.5549L56.5581 55.4875C56.5753 55.4709 56.5901 55.456 56.6026 55.4441C56.6145 55.4322 56.6347 55.4263 56.6627 55.4263L56.7833 55.4263C56.832 55.4263 56.857 55.4483 56.857 55.4929L56.857 57.8648C56.857 57.9129 56.8308 57.9367 56.778 57.9367L56.6466 57.9367C56.5937 57.9367 56.5676 57.9129 56.5676 57.8648L56.5676 55.8489L56.0113 56.6375L55.0984 57.8856C55.0889 57.8987 55.077 57.9106 55.0651 57.9213C55.0532 57.9314 55.033 57.9367 55.0063 57.9367L54.9082 57.9367C54.8636 57.9367 54.8411 57.9129 54.8411 57.8648L54.8411 55.4982Z" fill="#0AFF6F"/>
<path d="M57.8406 56.3695C57.8525 56.4622 57.8751 56.5365 57.9077 56.5912C57.9404 56.6464 57.9874 56.6845 58.0492 56.7071C58.111 56.7297 58.1918 56.7409 58.2917 56.7409C58.3636 56.7409 58.4432 56.7279 58.5312 56.7017C58.6186 56.6762 58.7059 56.6453 58.7921 56.609C58.8777 56.5728 58.9573 56.5371 59.0316 56.5008C59.1053 56.4646 59.1612 56.4367 59.1992 56.4159L59.1992 55.5083C59.1992 55.4566 59.223 55.4311 59.2711 55.4311L59.4054 55.4311C59.4328 55.4311 59.4506 55.4358 59.4595 55.4471C59.4678 55.4566 59.472 55.4774 59.472 55.5083L59.472 57.8541C59.472 57.9094 59.4494 57.9367 59.4054 57.9367L59.2711 57.9367C59.2438 57.9367 59.2242 57.9314 59.2117 57.9213C59.1998 57.9112 59.1939 57.8886 59.1939 57.8541L59.1939 56.6375C59.16 56.6619 59.1101 56.6934 59.0447 56.7326C58.9793 56.7724 58.9056 56.8117 58.823 56.8515C58.7404 56.8913 58.6501 56.9246 58.552 56.9519C58.4539 56.9793 58.3553 56.9935 58.2554 56.9935C58.0973 56.9935 57.9719 56.9715 57.8792 56.9288C57.7865 56.886 57.7152 56.8271 57.6653 56.7534C57.6153 56.6797 57.5827 56.5912 57.5672 56.4884C57.5517 56.3849 57.544 56.2714 57.544 56.1478L57.544 55.5083C57.544 55.4566 57.5702 55.4311 57.6213 55.4311L57.755 55.4311C57.7829 55.4311 57.8008 55.4358 57.8097 55.4471C57.818 55.4566 57.8222 55.4774 57.8222 55.5083L57.8222 56.0135C57.8222 56.1579 57.8287 56.2768 57.8406 56.3695Z" fill="#0AFF6F"/>
<path d="M61.252 55.6266C61.0945 55.6266 60.9697 55.6468 60.8782 55.6866C60.7878 55.727 60.7171 55.7847 60.6672 55.8602C60.6173 55.9368 60.5846 56.0301 60.5691 56.1401C60.5543 56.2512 60.5424 56.3772 60.5358 56.5187L61.9794 56.5187C61.9759 56.4117 61.967 56.3047 61.9539 56.1971C61.9396 56.0902 61.9081 55.9945 61.8582 55.9095C61.8083 55.8251 61.7364 55.7568 61.6419 55.705C61.5474 55.6527 61.4172 55.6266 61.252 55.6266ZM61.252 55.3746C61.4683 55.3746 61.6436 55.4073 61.7756 55.4721C61.9081 55.5374 62.0121 55.6224 62.0876 55.7276C62.1631 55.8322 62.2136 55.9529 62.2398 56.0884C62.2659 56.2245 62.2784 56.3624 62.2784 56.5032C62.2784 56.5829 62.2635 56.6447 62.2344 56.6892C62.2047 56.7338 62.1494 56.7558 62.0668 56.7558L60.5358 56.7558C60.5424 56.9282 60.5554 57.0756 60.5745 57.1974C60.5929 57.3192 60.6279 57.4179 60.6779 57.4934C60.7272 57.5688 60.7973 57.6241 60.8889 57.658C60.9798 57.6931 61.101 57.7103 61.252 57.7103C61.3043 57.7103 61.3661 57.7073 61.438 57.702C61.5099 57.6972 61.5836 57.6901 61.6603 57.6818C61.7352 57.6728 61.8083 57.6657 61.8784 57.658C61.9491 57.6515 62.0068 57.6461 62.0514 57.6431C62.0858 57.6396 62.1084 57.6526 62.1185 57.6841L62.134 57.7668C62.1441 57.8048 62.1256 57.8333 62.0769 57.8541C62.0359 57.8684 61.9806 57.8826 61.9123 57.8981C61.8433 57.9135 61.7696 57.9272 61.6906 57.9397C61.6116 57.9516 61.5319 57.9605 61.4511 57.9676C61.3703 57.9748 61.2966 57.9777 61.2318 57.9777C61.0018 57.9777 60.8199 57.9421 60.688 57.8696C60.5554 57.7977 60.4562 57.7014 60.3884 57.5813C60.3219 57.4607 60.2797 57.3204 60.2624 57.1605C60.2452 57.0013 60.2363 56.8354 60.2363 56.6631C60.2363 56.5157 60.2452 56.3653 60.2624 56.212C60.2797 56.0593 60.3219 55.9208 60.3884 55.7972C60.4562 55.6735 60.5572 55.5719 60.6933 55.4929C60.8282 55.4138 61.0149 55.3746 61.252 55.3746Z" fill="#0AFF6F"/>
<path d="M63.9532 55.374C63.9978 55.374 64.053 55.3764 64.1184 55.3799C64.1838 55.3829 64.2504 55.3889 64.3193 55.3978C64.3882 55.4061 64.4554 55.4174 64.5208 55.431C64.5861 55.4447 64.6444 55.4625 64.6961 55.4828C64.7234 55.4929 64.7383 55.5071 64.7395 55.5244C64.7413 55.5416 64.7424 55.557 64.7424 55.5701L64.7216 55.6581C64.7181 55.6753 64.708 55.6854 64.6907 55.6884C64.6735 55.6925 64.6527 55.6925 64.6289 55.6884C64.5844 55.6854 64.5338 55.6807 64.4768 55.6735C64.4203 55.667 64.3609 55.6605 64.2991 55.6551C64.2367 55.6504 64.1761 55.6462 64.116 55.6426C64.056 55.6391 63.9995 55.6373 63.9484 55.6373C63.8141 55.6373 63.7036 55.6539 63.6156 55.6866C63.5282 55.7193 63.4593 55.7752 63.4094 55.8542C63.3595 55.9338 63.3256 56.039 63.306 56.1692C63.2875 56.3005 63.278 56.464 63.278 56.6607C63.278 56.864 63.2887 57.0339 63.3089 57.17C63.3297 57.3055 63.3648 57.4143 63.4147 57.4957C63.4647 57.5765 63.5318 57.6342 63.618 57.6687C63.7042 57.7031 63.8141 57.7198 63.9484 57.7198C63.9823 57.7198 64.0293 57.7192 64.0881 57.715C64.1458 57.7115 64.2087 57.7073 64.2759 57.7025C64.3431 57.6972 64.4096 57.6918 64.4768 57.6871C64.5434 57.6817 64.6046 57.6752 64.6598 57.6687C64.7008 57.6687 64.7234 57.6841 64.727 57.715L64.7424 57.781C64.746 57.7982 64.7442 57.8137 64.7371 57.8291C64.73 57.844 64.7133 57.8583 64.6854 57.8719C64.6028 57.9058 64.4928 57.9308 64.3555 57.9474C64.2183 57.9646 64.0839 57.973 63.9532 57.973C63.7398 57.973 63.5693 57.9403 63.4403 57.8749C63.3113 57.8095 63.2127 57.7192 63.1443 57.6015C63.0754 57.485 63.0296 57.3465 63.0076 57.1867C62.985 57.0268 62.9737 56.8527 62.9737 56.6631C62.9737 56.4949 62.985 56.3326 63.0076 56.1763C63.0296 56.02 63.0754 55.8821 63.1443 55.7639C63.2127 55.645 63.3113 55.5505 63.4403 55.4798C63.5693 55.4097 63.7398 55.374 63.9532 55.374Z" fill="#0AFF6F"/>
<path d="M65.6975 57.8803C65.6975 57.9183 65.6785 57.9367 65.6405 57.9367L65.4616 57.9367C65.4265 57.9367 65.4093 57.9183 65.4093 57.8803L65.4093 55.4828C65.4093 55.4447 65.4265 55.4257 65.4616 55.4257L65.6405 55.4257C65.6785 55.4257 65.6975 55.4447 65.6975 55.4828L65.6975 56.5294L66.1409 56.5294C66.1861 56.5294 66.2341 56.5252 66.2856 56.5163C66.3371 56.508 66.3878 56.4884 66.4378 56.4569C66.4874 56.4265 66.5347 56.3826 66.5796 56.3255C66.6242 56.269 66.6619 56.1942 66.693 56.1014L66.899 55.4929C66.9128 55.4483 66.942 55.4257 66.9866 55.4257L67.1153 55.4257C67.1534 55.4257 67.1749 55.4328 67.1799 55.4465C67.1853 55.4602 67.1826 55.481 67.1722 55.5083L66.9712 56.1116C66.9228 56.2524 66.8698 56.3665 66.8113 56.4545C66.7529 56.5424 66.6757 56.5995 66.5796 56.6274C66.6411 56.6447 66.6945 56.6678 66.7391 56.697C66.7837 56.7261 66.8236 56.7623 66.8579 56.8051C66.892 56.8479 66.9216 56.8996 66.9455 56.9597C66.9697 57.0203 66.9955 57.0874 67.0227 57.1635L67.2548 57.8541C67.2618 57.882 67.2625 57.9028 67.2575 57.9165C67.2521 57.9302 67.2325 57.9367 67.1979 57.9367L67.0488 57.9367C67.0281 57.9367 67.0108 57.9337 66.9969 57.9266C66.9835 57.9195 66.9728 57.9028 66.9662 57.8749L66.7495 57.2152C66.7187 57.1219 66.6834 57.0476 66.6438 56.9912C66.6042 56.9341 66.5596 56.8901 66.5097 56.8592C66.4597 56.8283 66.4067 56.8075 66.3498 56.7974C66.2933 56.7867 66.2322 56.782 66.1673 56.782L65.6975 56.782L65.6975 57.8803Z" fill="#0AFF6F"/>
<path d="M67.9299 55.4982C67.9299 55.4501 67.9538 55.4263 68.0018 55.4263L68.1413 55.4263C68.1858 55.4263 68.2085 55.4501 68.2085 55.4982L68.2085 57.4571L68.858 56.5549L69.647 55.4875C69.6643 55.4709 69.6793 55.456 69.6916 55.4441C69.7034 55.4322 69.7238 55.4263 69.7515 55.4263L69.8726 55.4263C69.9214 55.4263 69.946 55.4483 69.946 55.4929L69.946 57.8648C69.946 57.9129 69.9198 57.9367 69.8672 57.9367L69.7358 57.9367C69.6831 57.9367 69.657 57.9129 69.657 57.8648L69.657 55.8489L69.1005 56.6375L68.1878 57.8856C68.1778 57.8987 68.1662 57.9106 68.1543 57.9213C68.1425 57.9314 68.1224 57.9367 68.0951 57.9367L67.9971 57.9367C67.9526 57.9367 67.9299 57.9129 67.9299 57.8648L67.9299 55.4982Z" fill="#0AFF6F"/>
<path d="M71.7418 55.0911C71.6073 55.0911 71.4778 55.0572 71.3521 54.9901C71.2269 54.9229 71.1281 54.8159 71.0558 54.668C71.0489 54.6543 71.0412 54.6353 71.0328 54.6115C71.0243 54.5871 71.0285 54.5669 71.0454 54.5497L71.1231 54.4879C71.1504 54.4671 71.1761 54.4724 71.2003 54.5033C71.2449 54.5645 71.288 54.6168 71.3294 54.6578C71.3701 54.6989 71.4125 54.7333 71.4555 54.7607C71.4985 54.7886 71.5439 54.8082 71.5919 54.8201C71.64 54.8326 71.6934 54.8385 71.7518 54.8385C71.8552 54.8385 71.9443 54.8118 72.02 54.7583C72.0958 54.7048 72.1818 54.6186 72.2779 54.498C72.3017 54.4742 72.3275 54.4689 72.3551 54.4825L72.4324 54.539C72.4497 54.5527 72.4531 54.5717 72.4428 54.596C72.4324 54.6198 72.4235 54.6406 72.417 54.6578C72.3378 54.8094 72.2383 54.9194 72.118 54.9877C71.9977 55.0566 71.8725 55.0911 71.7418 55.0911ZM70.7672 55.4982C70.7672 55.4501 70.791 55.4263 70.8391 55.4263L70.9785 55.4263C71.0231 55.4263 71.0454 55.4501 71.0454 55.4982L71.0454 57.4571L71.6953 56.5549L72.4843 55.4875C72.5016 55.4709 72.5165 55.456 72.5288 55.4441C72.5408 55.4322 72.5611 55.4263 72.5888 55.4263L72.7099 55.4263C72.7587 55.4263 72.7833 55.4483 72.7833 55.4929L72.7833 57.8648C72.7833 57.913 72.7571 57.9367 72.7045 57.9367L72.5731 57.9367C72.5204 57.9367 72.4942 57.913 72.4942 57.8648L72.4942 55.8489L71.9378 56.6375L71.0251 57.885C71.0147 57.8993 71.0036 57.9112 70.9916 57.9213C70.9797 57.932 70.9598 57.9367 70.9324 57.9367L70.8345 57.9367C70.7895 57.9367 70.7672 57.913 70.7672 57.8648L70.7672 55.4982Z" fill="#0AFF6F"/>
<path d="M34.5901 63.9382C34.583 63.959 34.5729 63.9744 34.5592 63.9845C34.5455 63.9946 34.5247 64 34.4974 64L34.3476 64C34.3102 64 34.2965 63.9792 34.3066 63.9382L34.5848 63.1341L33.6778 60.6486C33.6707 60.6314 33.6689 60.6171 33.6725 60.6046C33.6755 60.5927 33.6873 60.5868 33.7081 60.5868L33.8942 60.5868C33.9215 60.5868 33.9411 60.6058 33.9506 60.6433L34.6365 62.5255L34.7292 62.809L34.8171 62.51L35.4459 60.6284C35.4525 60.6112 35.459 60.5993 35.4638 60.5921C35.4691 60.585 35.4804 60.582 35.497 60.582L35.6985 60.582C35.7193 60.582 35.7306 60.5868 35.7324 60.5975C35.7342 60.6076 35.7312 60.6213 35.7247 60.6385L34.5901 63.9382Z" fill="#0AFF6F"/>
<path d="M38.3183 63.0925L38.187 63.0925C38.1317 63.0925 38.1032 63.0705 38.1032 63.0253L38.1032 61.886L36.6851 61.886L36.6851 63.0253C36.6851 63.0705 36.659 63.0925 36.6067 63.0925L36.47 63.0925C36.4212 63.0925 36.3969 63.0705 36.3969 63.0253L36.3969 60.6486C36.3969 60.604 36.4212 60.582 36.47 60.582L36.6067 60.582C36.659 60.582 36.6851 60.604 36.6851 60.6486L36.6851 61.6334L38.1032 61.6334L38.1032 60.6486C38.1032 60.604 38.1317 60.582 38.187 60.582L38.3183 60.582C38.3676 60.582 38.392 60.604 38.392 60.6486L38.392 63.0253C38.392 63.0705 38.3676 63.0925 38.3183 63.0925Z" fill="#0AFF6F"/>
<path d="M39.2133 60.654C39.2133 60.6058 39.2371 60.582 39.2853 60.582L39.4243 60.582C39.4689 60.582 39.4921 60.6058 39.4921 60.654L39.4921 62.6128L40.1411 61.7107L40.9303 60.6433C40.9476 60.6266 40.9624 60.6118 40.9749 60.5999C40.9868 60.588 41.007 60.582 41.0349 60.582L41.1562 60.582C41.2049 60.582 41.2293 60.604 41.2293 60.6486L41.2293 63.0205C41.2293 63.0687 41.2031 63.0925 41.1502 63.0925L41.0189 63.0925C40.9666 63.0925 40.9404 63.0687 40.9404 63.0205L40.9404 61.0046L40.3836 61.7933L39.4713 63.0414C39.4612 63.0544 39.4499 63.0663 39.4374 63.0776C39.4255 63.0871 39.4059 63.0925 39.3786 63.0925L39.2805 63.0925C39.2359 63.0925 39.2133 63.0687 39.2133 63.0205L39.2133 60.654Z" fill="#0AFF6F"/>
<path d="M42.3341 61.9121L42.3341 62.8399L43.1353 62.8399C43.2446 62.8399 43.3368 62.8262 43.4128 62.7989C43.4877 62.7709 43.5477 62.7365 43.5923 62.6931C43.6369 62.6503 43.6684 62.6021 43.6868 62.5487C43.7064 62.4958 43.7159 62.4417 43.7159 62.3864C43.7159 62.324 43.7064 62.2652 43.6868 62.2081C43.6684 62.1517 43.6375 62.1017 43.5947 62.0589C43.5519 62.0161 43.4954 61.9805 43.4253 61.9531C43.3552 61.9258 43.269 61.9121 43.1656 61.9121L42.3341 61.9121ZM42.3341 60.8346L42.3341 61.6697L43.0836 61.6697C43.1388 61.6697 43.1983 61.6631 43.2637 61.6489C43.3284 61.6352 43.3891 61.6132 43.4455 61.5823C43.502 61.552 43.5483 61.5092 43.5846 61.4545C43.6202 61.3998 43.6387 61.3315 43.6387 61.2495C43.6387 61.1365 43.5988 61.0391 43.5204 60.9577C43.4414 60.8756 43.3041 60.8346 43.1091 60.8346L42.3341 60.8346ZM43.1519 60.582C43.4235 60.582 43.6214 60.6427 43.7433 60.7645C43.8657 60.8869 43.9269 61.0421 43.9269 61.231C43.9269 61.2727 43.9228 61.3172 43.9138 61.3654C43.9055 61.4135 43.8895 61.4616 43.8663 61.5098C43.8443 61.5579 43.811 61.6043 43.767 61.6489C43.7237 61.694 43.6648 61.735 43.5917 61.7731C43.6743 61.8004 43.7421 61.8378 43.7956 61.886C43.8485 61.9347 43.8913 61.9876 43.9216 62.0459C43.9531 62.1047 43.9745 62.1641 43.9864 62.2265C43.9982 62.2883 44.0042 62.3448 44.0042 62.3965C44.0042 62.4993 43.9846 62.5938 43.9447 62.68C43.9055 62.7662 43.8503 62.8399 43.7801 62.9017C43.7094 62.9635 43.6256 63.011 43.5299 63.0431C43.4336 63.0764 43.3272 63.0925 43.2102 63.0925L42.1434 63.0925C42.1053 63.0925 42.0792 63.0865 42.0661 63.0746C42.0524 63.0627 42.0453 63.0443 42.0453 63.0205L42.0453 60.6433C42.0453 60.6028 42.0709 60.582 42.1226 60.582L43.1519 60.582Z" fill="#0AFF6F"/>
<path d="M45.7123 60.7829C45.5542 60.7829 45.43 60.8025 45.3384 60.8423C45.2475 60.8828 45.1768 60.9404 45.1275 61.0159C45.0775 61.0926 45.0448 61.1859 45.0294 61.2958C45.0139 61.407 45.0026 61.533 44.9961 61.6744L46.4391 61.6744C46.4362 61.568 46.4272 61.4604 46.4136 61.3529C46.3999 61.2459 46.3678 61.1502 46.3185 61.0652C46.2686 60.9808 46.1961 60.9125 46.1021 60.8608C46.0077 60.8091 45.8775 60.7829 45.7123 60.7829ZM45.7123 60.5303C45.9286 60.5303 46.1033 60.563 46.2359 60.6284C46.3678 60.6938 46.4718 60.7782 46.5479 60.8834C46.6228 60.988 46.6739 61.1086 46.6994 61.2441C46.7256 61.3802 46.7381 61.5181 46.7381 61.6589C46.7381 61.7386 46.7238 61.8004 46.6947 61.845C46.665 61.8895 46.6097 61.9115 46.5271 61.9115L44.9961 61.9115C45.0026 62.0839 45.0157 62.2313 45.0342 62.3531C45.0532 62.475 45.0876 62.5736 45.1376 62.6491C45.1875 62.7252 45.2576 62.7798 45.3491 62.8143C45.4395 62.8488 45.5607 62.866 45.7123 62.866C45.764 62.866 45.8258 62.863 45.8977 62.8577C45.9702 62.8529 46.0439 62.8458 46.12 62.8375C46.1955 62.8286 46.2686 62.8214 46.3387 62.8143C46.4088 62.8078 46.4671 62.8024 46.5116 62.7989C46.5455 62.7953 46.5687 62.809 46.5782 62.8405L46.5936 62.9225C46.6043 62.9605 46.5853 62.989 46.5372 63.0098C46.4956 63.0241 46.4409 63.0384 46.3726 63.0538C46.303 63.0693 46.2299 63.0829 46.1509 63.0954C46.0718 63.1073 45.9916 63.1162 45.9108 63.1234C45.8299 63.1305 45.7568 63.1341 45.6915 63.1341C45.4615 63.1341 45.2796 63.0978 45.1477 63.0253C45.0157 62.9534 44.9159 62.8571 44.8487 62.7371C44.7816 62.6164 44.7394 62.4761 44.7227 62.3163C44.7055 62.157 44.6966 61.9912 44.6966 61.8188C44.6966 61.6714 44.7055 61.5211 44.7227 61.3677C44.7394 61.215 44.7816 61.0765 44.8487 60.9529C44.9159 60.8293 45.0169 60.7276 45.153 60.6486C45.2885 60.5696 45.4751 60.5303 45.7123 60.5303Z" fill="#0AFF6F"/>
<path d="M47.7633 62.7472C47.9172 62.7947 48.0586 62.8298 48.1876 62.8506C48.3154 62.8708 48.4414 62.8815 48.565 62.8815C48.6916 62.8815 48.795 62.8625 48.8758 62.8244C48.9561 62.787 49.0202 62.7252 49.0684 62.6408C49.1165 62.5564 49.1492 62.4435 49.1682 62.302C49.1872 62.1611 49.1962 61.987 49.1962 61.7802C49.1962 61.5769 49.1884 61.4105 49.1712 61.2816C49.1534 61.1526 49.1254 61.0504 49.0862 60.9767C49.047 60.9024 48.9935 60.8513 48.9269 60.8245C48.8598 60.7966 48.7772 60.7829 48.6779 60.7829C48.6054 60.7829 48.5264 60.796 48.439 60.8215C48.3516 60.8477 48.2649 60.8774 48.1793 60.9125C48.0937 60.9464 48.0141 60.982 47.941 61.0177C47.8673 61.0545 47.8078 61.0842 47.7633 61.108L47.7633 62.7472ZM47.7633 63.918C47.7633 63.9518 47.7573 63.9738 47.7448 63.9845C47.7329 63.9946 47.7127 64 47.6848 64L47.5428 64C47.4976 64 47.4744 63.9721 47.4744 63.9174L47.4744 60.6593C47.4744 60.6076 47.4976 60.582 47.5428 60.582L47.6848 60.582C47.7127 60.582 47.7329 60.5868 47.7448 60.5969C47.7573 60.6076 47.7633 60.6278 47.7633 60.6593L47.7585 60.8857C47.7924 60.862 47.8429 60.8299 47.9106 60.7906C47.9772 60.7514 48.0539 60.7122 48.1395 60.6742C48.2256 60.6367 48.3172 60.6034 48.4152 60.5743C48.5133 60.5446 48.6119 60.5297 48.7118 60.5297C48.8633 60.5297 48.9893 60.5559 49.091 60.6076C49.1926 60.6593 49.2734 60.7372 49.3335 60.8418C49.3935 60.9469 49.4357 61.0783 49.4594 61.2364C49.4838 61.3945 49.4957 61.5787 49.4957 61.7879C49.4957 62.0084 49.4808 62.2022 49.4523 62.3709C49.4226 62.5391 49.3721 62.68 49.3002 62.7935C49.2288 62.907 49.1296 62.992 49.0048 63.0485C48.8794 63.1055 48.7231 63.1341 48.5347 63.1341C48.4348 63.1341 48.3207 63.1234 48.1924 63.1014C48.064 63.0788 47.9225 63.0342 47.7686 62.9665L47.7633 62.9777L47.7633 63.918Z" fill="#0AFF6F"/>
<path d="M51.1889 60.5303C51.2335 60.5303 51.2888 60.5321 51.3542 60.5357C51.4195 60.5387 51.4861 60.5446 51.5556 60.5535C51.624 60.5618 51.6911 60.5731 51.7565 60.5868C51.8219 60.6011 51.8801 60.6183 51.9318 60.6385C51.9592 60.6486 51.974 60.6629 51.9752 60.6801C51.9776 60.6973 51.9782 60.7128 51.9782 60.7259L51.9574 60.8138C51.9538 60.8311 51.9437 60.8412 51.9265 60.8447C51.9093 60.8483 51.8885 60.8483 51.8647 60.8447C51.8201 60.8412 51.7696 60.8364 51.7125 60.8293C51.6561 60.8227 51.5966 60.8162 51.5348 60.8109C51.473 60.8061 51.4118 60.8019 51.3518 60.7984C51.2918 60.7948 51.2359 60.7936 51.1842 60.7936C51.0499 60.7936 50.9393 60.8097 50.852 60.8423C50.764 60.875 50.6951 60.9309 50.6451 61.01C50.5952 61.0896 50.5613 61.1948 50.5417 61.3249C50.5233 61.4563 50.5138 61.6197 50.5138 61.8164C50.5138 62.0197 50.5245 62.1897 50.5447 62.3258C50.5655 62.4613 50.6006 62.57 50.6505 62.6515C50.7004 62.7323 50.7682 62.7899 50.8537 62.8244C50.9399 62.8589 51.0499 62.8761 51.1842 62.8761C51.2181 62.8761 51.265 62.8749 51.3238 62.8708C51.3815 62.8672 51.4445 62.863 51.5117 62.8583C51.5788 62.8529 51.6454 62.8476 51.7125 62.8428C51.7797 62.8375 51.8403 62.8315 51.8956 62.825C51.9366 62.825 51.9592 62.8399 51.9627 62.8708L51.9782 62.9367C51.9818 62.954 51.98 62.9694 51.9729 62.9849C51.9657 62.9997 51.9491 63.014 51.9211 63.0277C51.8385 63.0615 51.7286 63.0865 51.5913 63.1032C51.454 63.1204 51.3197 63.1287 51.1889 63.1287C50.9756 63.1287 50.805 63.096 50.676 63.0306C50.5471 62.9653 50.4484 62.8749 50.3801 62.7573C50.3111 62.6408 50.2654 62.5023 50.244 62.3424C50.2208 62.1825 50.2101 62.0084 50.2101 61.8188C50.2101 61.6506 50.2208 61.4884 50.244 61.3321C50.2654 61.1758 50.3111 61.0379 50.3801 60.9196C50.4484 60.8008 50.5471 60.7063 50.676 60.6355C50.805 60.5654 50.9756 60.5303 51.1889 60.5303Z" fill="#0AFF6F"/>
<path d="M52.645 60.654C52.645 60.6058 52.6694 60.582 52.7169 60.582L52.8566 60.582C52.9012 60.582 52.9238 60.6058 52.9238 60.654L52.9238 62.6128L53.5734 61.7107L54.3626 60.6433C54.3798 60.6266 54.3947 60.6118 54.4072 60.5999C54.4191 60.588 54.4393 60.582 54.4666 60.582L54.5879 60.582C54.6366 60.582 54.6616 60.604 54.6616 60.6486L54.6616 63.0205C54.6616 63.0687 54.6354 63.0925 54.5825 63.0925L54.4512 63.0925C54.3983 63.0925 54.3721 63.0687 54.3721 63.0205L54.3721 61.0046L53.8158 61.7933L52.903 63.0414C52.8934 63.0544 52.8816 63.0663 52.8697 63.0776C52.8578 63.0871 52.8376 63.0925 52.8102 63.0925L52.7128 63.0925C52.6682 63.0925 52.645 63.0687 52.645 63.0205L52.645 60.654Z" fill="#0AFF6F"/>
<path d="M57.2255 60.8346L56.4469 60.8346L56.4469 63.0253C56.4469 63.0705 56.4208 63.0925 56.3685 63.0925L56.2419 63.0925C56.186 63.0925 56.1581 63.0705 56.1581 63.0253L56.1581 60.8346L55.3848 60.8346C55.3296 60.8346 55.3022 60.8109 55.3022 60.7621L55.3022 60.6486C55.3022 60.604 55.3296 60.582 55.3848 60.582L57.2308 60.582C57.2582 60.582 57.276 60.588 57.2843 60.5999C57.2932 60.6118 57.2974 60.6278 57.2974 60.6486L57.2974 60.7621C57.2974 60.8109 57.2736 60.8346 57.2255 60.8346Z" fill="#0AFF6F"/>
<path d="M58.8385 60.7829C58.6804 60.7829 58.5562 60.8025 58.4646 60.8423C58.3737 60.8828 58.303 60.9404 58.2536 61.0159C58.2037 61.0926 58.171 61.1859 58.1556 61.2958C58.1401 61.407 58.1288 61.533 58.1223 61.6744L59.5653 61.6744C59.5617 61.568 59.5534 61.4604 59.5398 61.3529C59.5261 61.2459 59.494 61.1502 59.4447 61.0652C59.3947 60.9808 59.3222 60.9125 59.2283 60.8608C59.1332 60.8091 59.0037 60.7829 58.8385 60.7829ZM58.8385 60.5303C59.0548 60.5303 59.2295 60.563 59.3621 60.6284C59.494 60.6938 59.598 60.7782 59.6741 60.8834C59.749 60.988 59.8001 61.1086 59.8256 61.2441C59.8518 61.3802 59.8643 61.5181 59.8643 61.6589C59.8643 61.7386 59.85 61.8004 59.8209 61.845C59.7912 61.8895 59.7359 61.9115 59.6533 61.9115L58.1223 61.9115C58.1288 62.0839 58.1419 62.2313 58.1603 62.3531C58.1794 62.475 58.2138 62.5736 58.2637 62.6491C58.3137 62.7252 58.3838 62.7798 58.4753 62.8143C58.5657 62.8488 58.6869 62.866 58.8385 62.866C58.8902 62.866 58.952 62.863 59.0239 62.8577C59.0964 62.8529 59.1701 62.8458 59.2462 62.8375C59.3216 62.8286 59.3947 62.8214 59.4649 62.8143C59.535 62.8078 59.5932 62.8024 59.6378 62.7989C59.6717 62.7953 59.6949 62.809 59.7044 62.8405L59.7198 62.9225C59.7305 62.9605 59.7115 62.989 59.6634 63.0098C59.6218 63.0241 59.5671 63.0384 59.4988 63.0538C59.4292 63.0693 59.3561 63.0829 59.2771 63.0954C59.1974 63.1073 59.1178 63.1162 59.037 63.1234C58.9561 63.1305 58.883 63.1341 58.8177 63.1341C58.5877 63.1341 58.4058 63.0978 58.2739 63.0253C58.1419 62.9534 58.0421 62.8571 57.9749 62.7371C57.9077 62.6164 57.8656 62.4761 57.8489 62.3163C57.8317 62.157 57.8228 61.9912 57.8228 61.8188C57.8228 61.6714 57.8317 61.5211 57.8489 61.3677C57.8656 61.215 57.9077 61.0765 57.9749 60.9529C58.0421 60.8293 58.1431 60.7276 58.2792 60.6486C58.4147 60.5696 58.6013 60.5303 58.8385 60.5303Z" fill="#0AFF6F"/>
<path d="M62.3004 60.8346L61.5218 60.8346L61.5218 63.0253C61.5218 63.0705 61.4957 63.0925 61.4434 63.0925L61.3168 63.0925C61.2609 63.0925 61.233 63.0705 61.233 63.0253L61.233 60.8346L60.4598 60.8346C60.4045 60.8346 60.3772 60.8109 60.3772 60.7621L60.3772 60.6486C60.3772 60.604 60.4045 60.582 60.4598 60.582L62.3057 60.582C62.3325 60.582 62.3509 60.588 62.3592 60.5999C62.3681 60.6118 62.3717 60.6278 62.3717 60.6486L62.3717 60.7621C62.3717 60.8109 62.3479 60.8346 62.3004 60.8346Z" fill="#0AFF6F"/>
<path d="M6.25959e-06 31.3376C5.50307e-06 48.6447 14.0308 62.6746 31.338 62.6746L31.338 61.0301C31.338 60.3211 30.7823 59.7316 30.0739 59.7012C22.9652 59.3922 16.3254 56.4765 11.2624 51.4134C5.87963 46.0306 2.87533 38.67 2.94784 31.0585C3.01856 23.6723 5.89271 16.7329 11.0657 11.4599C16.3968 6.02624 23.7253 2.94605 31.338 2.94605C38.921 2.94605 46.051 5.89942 51.413 11.2616C56.4778 16.3263 59.393 22.9671 59.7014 30.0778C59.7317 30.7846 60.3237 31.3372 61.0315 31.3372L62.6748 31.3372C62.6748 14.0305 48.6453 -2.22716e-06 31.338 -2.98368e-06C14.0468 -0.000360333 7.01541e-06 14.0463 6.25959e-06 31.3376ZM7.07243 31.3376C7.07243 44.7386 17.9366 55.6022 31.338 55.6022L31.338 53.9482C31.338 53.2433 30.7889 52.6603 30.0852 52.6205C24.7904 52.3156 19.8605 50.0821 16.1109 46.2585C12.2823 42.3536 10.0916 37.091 10.0209 31.6231C9.9442 25.7271 12.2424 20.1778 16.4657 16.0627C20.3823 12.2466 25.6521 10.0738 31.1205 10.0196C36.8961 9.96268 42.3347 12.1847 46.4118 16.2625C50.1429 19.9929 52.3205 24.8624 52.6207 30.0867C52.6611 30.7891 53.2441 31.3372 53.9484 31.3372L55.6024 31.3372C55.6024 17.9366 44.7388 7.07231 31.338 7.07231C17.9497 7.07231 7.07243 17.9489 7.07243 31.3376ZM31.0932 14.1608C21.8407 14.2895 14.2899 21.8407 14.1609 31.0928C14.0278 40.6919 21.7688 48.5155 31.338 48.5155L31.338 46.8442C31.338 46.1463 30.7978 45.5763 30.1024 45.5164C22.5801 44.8665 16.7117 38.3395 17.126 30.5632C17.5105 23.3479 23.3479 17.51 30.5636 17.126C38.3397 16.7118 44.8666 22.5793 45.5167 30.102C45.5768 30.7972 46.1467 31.3372 46.8445 31.3372L48.5163 31.3372C48.5163 21.8503 40.824 14.1597 31.338 14.1592C31.256 14.1592 31.1752 14.1597 31.0932 14.1608ZM78.7653 34.1233C78.3318 34.2095 77.9287 34.3282 77.5547 34.4792C77.1808 34.631 76.8384 34.8132 76.5267 35.0269C76.2151 35.2406 75.938 35.4719 75.6947 35.7209L76.7097 37.0829C76.7746 37.1659 76.8518 37.2416 76.941 37.3096C77.0298 37.378 77.1543 37.4122 77.3149 37.4122C77.4748 37.4122 77.6243 37.3634 77.7642 37.2654C77.9033 37.1674 78.0728 37.0606 78.2711 36.945C78.4702 36.8292 78.7161 36.7224 79.0101 36.6244C79.3037 36.5268 79.6876 36.4776 80.1626 36.4776C80.5838 36.4776 80.9754 36.543 81.3374 36.6732C81.6994 36.8039 82.0211 36.9972 82.3032 37.252C82.5849 37.5072 82.822 37.8204 83.0149 38.1908C83.2078 38.5617 83.3488 38.9875 83.4376 39.4679L77.9375 39.4679L77.9375 41.6219L83.4557 41.6219C83.3723 42.1323 83.2271 42.583 83.0195 42.9746C82.8116 43.3662 82.5595 43.6956 82.2632 43.9626C81.9665 44.2294 81.6341 44.4315 81.2659 44.568C80.8982 44.7044 80.5097 44.7728 80.1 44.7728C79.8214 44.7728 79.5704 44.7593 79.3483 44.7324C79.1258 44.7059 78.9167 44.6613 78.7207 44.599C78.5251 44.5368 78.341 44.4538 78.1693 44.35C77.9967 44.2463 77.8218 44.1141 77.6439 43.9539C77.5728 43.8942 77.4952 43.8459 77.4122 43.8071C77.3291 43.7686 77.2434 43.749 77.1543 43.749C77.0832 43.749 77.0117 43.7625 76.941 43.7893C76.8695 43.8158 76.8011 43.862 76.7362 43.9269L75.5437 45.1821C76.0655 45.8646 76.7197 46.3792 77.5055 46.7262C78.2922 47.0732 79.2222 47.2469 80.2963 47.2469C81.281 47.2469 82.1637 47.0794 82.9438 46.7439C83.7239 46.4088 84.3857 45.9461 84.9284 45.3554C85.4713 44.7655 85.8883 44.0649 86.1792 43.2552C86.4698 42.445 86.6154 41.5658 86.6154 40.6161C86.6154 39.6492 86.4579 38.7607 86.1435 37.9507C85.8288 37.1409 85.3872 36.4423 84.8173 35.8547C84.2478 35.2674 83.5652 34.8105 82.7701 34.4839C81.975 34.1579 81.0999 33.9946 80.1446 33.9946C79.6584 33.9946 79.1984 34.0376 78.7653 34.1233ZM91.6532 34.1372L86.6331 47.1044L88.9831 47.1044C89.2322 47.1044 89.4412 47.0378 89.6107 46.9041C89.7798 46.7708 89.897 46.6209 89.9619 46.4549L90.7275 44.1944L95.6581 44.1944L96.4236 46.4549C96.5066 46.6447 96.6284 46.8004 96.7883 46.9218C96.9485 47.0436 97.1592 47.1044 97.4205 47.1044L99.7521 47.1044L94.7327 34.1372L91.6532 34.1372ZM92.6144 38.6136C92.7032 38.388 92.7981 38.1213 92.8992 37.8127C93.0002 37.5044 93.0952 37.169 93.1839 36.807C93.2846 37.1632 93.3853 37.4937 93.4864 37.7996C93.5875 38.1048 93.6824 38.3703 93.7715 38.5959L94.9729 42.1472L91.4219 42.1472L92.6144 38.6136ZM65.102 34.1372L65.102 47.1044L68.1097 47.1044L68.1097 42.7702L69.6762 42.7702C70.5719 42.7702 71.3482 42.6622 72.0035 42.445C72.6595 42.2287 73.2006 41.9278 73.6279 41.542C74.0553 41.1561 74.3723 40.6934 74.5802 40.1535C74.7878 39.6135 74.8915 39.0206 74.8915 38.3734C74.8915 37.7743 74.7904 37.2163 74.5895 36.7002C74.3873 36.184 74.0741 35.7359 73.6502 35.3562C73.2259 34.9765 72.686 34.6787 72.0304 34.4619C71.3748 34.2452 70.59 34.1372 69.6762 34.1372L65.102 34.1372ZM68.1097 36.3884L69.6762 36.3884C70.0558 36.3884 70.3841 36.4361 70.66 36.531C70.9359 36.626 71.1642 36.7612 71.3452 36.9361C71.5258 37.1113 71.6611 37.32 71.7499 37.5636C71.839 37.8069 71.8836 38.0767 71.8836 38.3734C71.8836 39.044 71.7114 39.5663 71.3671 39.9398C71.0231 40.3137 70.4597 40.5009 69.6762 40.5009L68.1097 40.5009L68.1097 36.3884ZM60.3005 34.1372C60.1579 34.1372 60.0212 34.1637 59.891 34.2168C59.7603 34.2706 59.6384 34.3405 59.5261 34.4262C59.4132 34.5123 59.311 34.6087 59.2188 34.7152C59.1273 34.822 59.0489 34.9289 58.9835 35.0361L55.0408 41.7733C54.8856 42.0165 54.7293 42.2998 54.5689 42.6234C54.4084 42.9466 54.2604 43.2955 54.1237 43.6691C54.1891 43.2417 54.2307 42.8397 54.2485 42.4628C54.2658 42.0861 54.2753 41.7287 54.2753 41.3905L54.2753 34.1372L51.249 34.1372L51.249 47.1044L53.5187 47.1044C53.6613 47.1044 53.7974 47.0778 53.9276 47.024C54.0583 46.971 54.1802 46.901 54.2931 46.8153C54.4054 46.7293 54.5082 46.6328 54.5998 46.526C54.6913 46.4192 54.7703 46.3123 54.8357 46.2054L58.7784 39.4679C58.9324 39.2246 59.0899 38.9414 59.2497 38.6182C59.4102 38.2946 59.5588 37.9434 59.6955 37.5636C59.6361 37.9906 59.5956 38.3926 59.5754 38.7692C59.5546 39.1462 59.5439 39.5036 59.5439 39.8418L59.5439 47.1044L62.5702 47.1044L62.5702 34.1372L60.3005 34.1372ZM46.4213 34.1372C46.2906 34.1372 46.1764 34.1403 46.079 34.1456C45.9803 34.1518 45.8929 34.1695 45.8157 34.1995C45.739 34.2291 45.6689 34.2748 45.6071 34.3374C45.5447 34.3997 45.4835 34.4869 45.4246 34.5999L42.0958 41.1504C41.971 41.3759 41.8539 41.6131 41.744 41.8621C41.6346 42.1115 41.5288 42.3667 41.4278 42.6276C41.3274 42.3724 41.2222 42.1234 41.1122 41.8801C41.0023 41.6369 40.8882 41.4024 40.7699 41.1769L37.4322 34.5999C37.3728 34.4869 37.3115 34.3997 37.2497 34.3374C37.1873 34.2748 37.1178 34.2291 37.0405 34.1995C36.9633 34.1695 36.8753 34.1518 36.7778 34.1456C36.6798 34.1403 36.5657 34.1372 36.4355 34.1372L34.1391 34.1372L34.1391 47.1044L36.7915 47.1044L36.7915 39.6462C36.7915 39.474 36.7856 39.2857 36.7731 39.0809C36.7618 38.876 36.7469 38.6674 36.7291 38.4533L40.1732 45.1375C40.2802 45.3454 40.424 45.5022 40.6047 45.6094C40.7859 45.7163 40.9916 45.7693 41.2234 45.7693L41.6329 45.7693C41.864 45.7693 42.0703 45.7163 42.2515 45.6094C42.4328 45.5022 42.576 45.3454 42.683 45.1375L46.1277 38.4713C46.1033 38.6789 46.0873 38.8838 46.079 39.0855C46.0695 39.2872 46.0653 39.474 46.0653 39.6462L46.0653 47.1044L48.7172 47.1044L48.7172 34.1372L46.4213 34.1372Z" fill="#0AFF6F"/>
<path d="M32.6889 30.3642C32.277 30.604 31.864 30.8415 31.4509 31.0794C29.7809 32.0435 28.1114 33.0078 26.4408 33.9701C26.3796 34.005 26.3546 34.0454 26.3558 34.1157C26.3588 34.4186 26.357 34.7214 26.357 35.025C26.357 35.3301 26.3564 35.6356 26.357 35.9415C26.357 36.0364 26.3594 36.0384 26.442 35.9907C26.6518 35.8701 26.861 35.749 27.0702 35.6275C27.9765 35.1041 28.8817 34.5803 29.7874 34.0573C30.8091 33.4666 31.8319 32.8767 32.8541 32.2864C33.3771 31.9848 33.9001 31.6831 34.4225 31.381C34.5004 31.3361 34.4998 31.3292 34.4231 31.2846C33.8912 30.9779 33.3599 30.6716 32.8297 30.3637C32.8042 30.3488 32.7822 30.3415 32.7602 30.3415C32.737 30.3415 32.7145 30.3492 32.6889 30.3642Z" fill="#0AFF6F"/>
<path d="M26.357 26.7506C26.357 27.7824 26.357 28.8139 26.357 29.8453C26.357 30.8818 26.357 31.9182 26.3576 32.9547C26.3576 32.9766 26.3576 32.9989 26.3594 33.0204C26.3612 33.0431 26.3748 33.0508 26.395 33.0416C26.4129 33.0335 26.4301 33.0232 26.4467 33.0132C26.5781 32.9375 26.7088 32.8613 26.8402 32.7856C27.6895 32.2964 28.5388 31.8068 29.3874 31.3172C30.1963 30.8507 31.0052 30.3834 31.8129 29.9153C31.8468 29.8957 31.9056 29.8869 31.9044 29.8431C31.9026 29.8069 31.8468 29.7962 31.8141 29.7765C31.0967 29.3619 30.3794 28.948 29.6614 28.5337C28.5964 27.9188 27.5314 27.3043 26.4669 26.6898C26.4212 26.6633 26.3944 26.6479 26.379 26.6479C26.357 26.6479 26.357 26.6783 26.357 26.7506Z" fill="#0AFF6F"/>
<path d="M23.2403 31.3272C23.2368 35.8039 26.8728 39.4441 31.332 39.4337C31.9674 39.4368 32.5843 39.3572 33.1804 39.2188L33.1804 39.197L33.1804 38.9299L33.1804 38.2608L33.1804 38.059C32.866 38.1447 32.5456 38.2086 32.2188 38.2496C31.8348 38.2981 31.4491 38.3177 31.0628 38.3011C30.368 38.2716 29.6899 38.1451 29.0326 37.9138C28.219 37.6267 27.4838 37.2043 26.8277 36.6444C26.2613 36.1614 25.784 35.6022 25.3948 34.9677C24.8729 34.1172 24.5532 33.1965 24.4278 32.2073C24.3826 31.8479 24.363 31.4871 24.3755 31.1247C24.4005 30.3765 24.5413 29.6497 24.7981 28.9457C24.9811 28.4457 25.2183 27.9722 25.5107 27.5272C25.7216 27.2056 25.957 26.9035 26.2173 26.6203C26.7249 26.068 27.3073 25.6123 27.9616 25.2475C28.2844 25.0673 28.6202 24.9148 28.9678 24.7887C29.4498 24.6139 29.9461 24.4943 30.4542 24.4294C30.7116 24.3971 30.9695 24.3806 31.2292 24.3763C31.8634 24.3663 32.4874 24.4375 33.1019 24.5977C33.5596 24.7176 34.0005 24.8824 34.4255 25.0912C34.4915 25.1234 34.5176 25.1615 34.5176 25.2368C34.5158 27.2409 34.5158 29.2455 34.5158 31.2496L34.5158 31.3376L34.5158 33.1761L34.7524 33.1761L35.4763 33.1761L35.7128 33.1761L35.7128 31.3391C35.7128 29.584 35.7128 27.8289 35.7134 26.0738C35.7134 26.0423 35.7122 26.01 35.7164 25.9785C35.7205 25.9477 35.7348 25.9428 35.7621 25.9593C35.7764 25.9677 35.7895 25.9793 35.8031 25.9904C36.4711 26.5519 37.0179 27.2125 37.4399 27.9769C37.8767 28.7701 38.1489 29.6163 38.2553 30.5156C38.2797 30.7246 38.2927 30.9345 38.2999 31.1443C38.3266 31.9843 38.2 32.801 37.9308 33.5957C37.9249 33.6115 37.9171 33.6265 37.9118 33.6423C37.9177 33.6484 37.9249 33.6522 37.9308 33.658C38.0164 33.7433 38.0936 33.8486 38.1691 33.965L38.1804 33.9482L38.2904 34.1645L38.3183 34.2199L38.3706 34.3225L38.6327 34.8401C39.1343 33.7998 39.4279 32.6392 39.438 31.406C39.4737 26.9016 35.837 23.2626 31.3778 23.2411C31.3653 23.2411 31.3511 23.2411 31.338 23.2411C26.8354 23.2407 23.2439 26.9073 23.2403 31.3272Z" fill="#0AFF6F"/>
</svg>
